<svg width="233" height="209" viewBox="0 0 233 209" fill="none" xmlns="http://www.w3.org/2000/svg">
<path fill-rule="evenodd" clip-rule="evenodd" d="M12.0426 116.495C9.76267 114.517 7.47729 112.473 5.34265 110.273C3.38262 108.251 1.912 105.905 0.726644 103.362C-1.23733 99.1526 0.978636 95.574 4.988 94.9326C6.43864 94.702 7.88663 94.4446 9.34932 94.498C10.2893 94.5313 10.6626 94.1607 10.812 93.294C12.2507 84.914 16.4026 77.9726 22.224 71.938C22.9413 71.1913 23.2026 70.4246 23.196 69.3966C23.1613 63.674 23.3573 57.9633 24.092 52.278C24.412 49.79 25.132 47.4153 26.0973 45.1207C28.6 39.1646 33.428 39.322 37.744 42.3113C39.6813 43.654 41.0133 45.6313 42.3373 47.566C45.192 51.7406 47.8346 56.042 50.184 60.518C50.66 61.4206 51.224 61.9486 52.2413 61.5646C53.2613 61.1806 54.6466 62.034 55.296 61.082C55.816 60.3206 55.6973 59.1126 55.832 58.098C57.0453 48.8726 58.2786 39.65 59.452 30.4206C60.0706 25.5553 60.492 20.6633 61.1746 15.806C61.6827 12.186 62.348 8.57662 63.368 5.05395C63.5907 4.28597 63.8933 3.51928 64.2906 2.82731C65.248 1.15663 66.552 -0.0553817 68.652 0.00195165C70.7173 0.059285 72.084 1.20329 72.944 2.9473C73.8547 4.79397 74.3466 6.79797 74.7853 8.80465C76.1626 15.1126 76.5973 21.55 77.4093 27.9353C78.1213 33.5326 78.8746 39.1233 79.5933 44.718C80.2 49.4393 81.0546 54.1273 81.472 58.874C81.5493 59.7393 81.5733 60.634 81.9626 61.4247C82.4867 61.4247 83.0267 61.2993 83.476 61.446C85.7867 62.2006 86.8667 61.026 87.8346 59.1046C89.808 55.1793 92.18 51.4726 94.652 47.8433C95.68 46.3353 96.852 44.914 98.0546 43.5366C99.552 41.8206 101.523 40.8767 103.74 40.442C106.428 39.9127 108.501 40.9046 109.973 43.1326C111.448 45.3633 112.263 47.8713 112.791 50.4793C113.743 55.1766 113.683 59.958 113.941 64.71C114.029 66.3206 114.037 67.938 113.992 69.5513C113.963 70.5113 114.305 71.1953 114.959 71.882C119.705 76.8806 123.428 82.502 125.449 89.174C125.876 90.582 126.043 92.0326 126.459 93.4393C126.683 94.202 127.008 94.5246 127.823 94.4953C129.589 94.4286 131.313 94.7366 133.029 95.1646C136.333 95.9886 138.055 99.05 136.863 102.273C135.735 105.322 134.071 108.062 131.731 110.361C131.161 110.921 130.651 111.541 130.029 112.226C130.977 112.757 131.925 112.683 132.836 112.697C136.356 112.753 139.88 112.777 143.401 112.803C146.272 112.827 149.116 113.157 151.912 113.754C152.872 113.961 153.301 113.807 153.817 112.955C155.565 110.07 157.449 107.267 159.251 104.415C164.367 96.3193 171.461 90.63 180.34 87.15C185.568 85.1006 191.016 84.746 196.575 85.174C204.92 85.8113 211.109 90.0446 216.165 96.4313C220.828 102.322 223.236 109.057 224.061 116.414C224.971 124.535 224.745 132.679 224.319 140.822C223.941 148.005 223.472 155.185 223.656 162.382C223.752 166.135 224.141 169.843 225.419 173.415C226.497 176.431 227.963 179.111 230.611 181.119C233.32 183.174 233.149 185.335 230.079 186.862C221.392 191.186 212.375 192.547 203.063 189.026C198.781 187.409 195.383 184.477 192.488 180.982C188.524 176.195 185.619 170.773 183.176 165.09C181.903 162.129 180.793 159.093 179.209 156.269C178.375 154.782 177.367 153.447 176.047 152.355C175.533 151.931 175.004 151.535 174.361 151.339C173.075 150.945 171.644 151.581 171.505 152.706C170.592 160.074 168.628 167.235 167.289 174.518C165.919 181.97 165.343 189.497 165.049 197.054C165.005 198.226 164.864 199.394 164.767 200.563C164.597 202.586 163.433 203.846 161.541 204.263C156.657 205.343 151.712 205.958 146.691 205.739C145.799 205.699 144.945 205.463 144.133 205.125C141.713 204.111 140.66 201.871 141.444 199.369C142.003 197.59 142.965 196.015 144.325 194.746C145.387 193.758 145.744 192.609 145.733 191.21C145.696 186.43 144.896 181.714 144.588 176.958C144.471 175.13 144.145 173.314 144.039 171.486C143.976 170.419 143.515 170.159 142.528 170.121C140.177 170.026 137.837 170.049 135.505 170.393C133.928 170.626 133.888 170.622 133.971 172.065C134.124 174.701 134.385 177.333 134.503 179.97C134.763 185.906 135.169 191.847 134.253 197.767C134.141 198.491 134.004 199.213 133.869 199.933C133.556 201.613 132.56 202.705 130.933 203.161C129.593 203.537 128.24 203.911 126.868 204.106C123.315 204.613 119.771 205.23 116.161 205.265C114.732 205.279 113.389 204.966 112.133 204.317C109.128 202.765 108.248 199.57 109.997 196.665C110.807 195.319 111.971 194.301 113.163 193.325C114.112 192.547 114.392 191.61 114.293 190.41C113.877 185.294 113.512 180.171 113.144 175.05C112.983 172.814 112.979 172.774 110.703 172.663C108.577 172.559 106.452 172.455 104.324 172.425C102.596 172.401 102.525 172.45 102.557 174.091C102.687 180.921 102.188 187.737 102.068 194.559C102.016 197.493 101.767 200.413 101.381 203.326C101.071 205.686 99.7653 207.006 97.5093 207.514C92.0946 208.734 86.6373 209.167 81.124 208.361C80.4067 208.257 79.692 208.015 79.0253 207.726C76.7613 206.743 75.7507 204.803 76.2133 202.37C76.5706 200.491 77.5173 198.903 79.0253 197.777C80.3626 196.778 80.676 195.569 80.6693 193.983C80.6386 187.011 80.4493 180.043 80.1187 173.079C80.0693 172.041 79.7173 171.63 78.7293 171.593C74.4707 171.434 70.2227 171.431 65.976 171.889C64.6933 172.027 64.72 172.887 64.66 173.765C64.3533 178.155 64.0787 182.549 63.7507 186.938C63.5053 190.23 63.1973 193.518 62.908 196.805C62.7986 198.053 62.5493 199.275 62.0653 200.434C60.7253 203.645 58.576 205.83 54.8866 206.051C50.7747 206.297 46.6666 206.213 42.576 205.729C38.6853 205.27 35.932 201.117 38.5227 197.182C38.9266 196.57 39.2906 195.93 39.684 195.311C41.5773 192.337 42.4933 189.118 42.6933 185.566C43.048 179.269 43.7573 172.993 44.1733 166.699C44.56 160.843 44.7786 154.975 44.7386 149.099C44.732 147.875 43.976 147.597 43.1827 147.303C39.4666 145.925 35.9826 144.074 32.4546 142.291C28.3173 140.199 24.6 137.477 20.792 134.897C18.1307 133.091 15.6533 131.018 13.1027 129.051C11.7666 128.021 10.5026 126.926 9.61865 125.442C7.85063 122.475 8.3733 119.606 11.1253 117.527C11.4773 117.262 11.868 117.051 12.0426 116.495Z" fill="black"/>
<path fill-rule="evenodd" clip-rule="evenodd" d="M54.8917 64.912C54.7583 66.9893 54.5304 68.796 54.6143 70.6254C54.6637 71.74 54.9863 72.588 55.8397 73.3027C60.7357 77.4093 66.253 79.048 72.5943 77.7107C75.829 77.0293 78.6423 75.5733 81.1637 73.4827C81.9797 72.804 82.4623 72.0734 82.4637 70.876C82.4677 68.9827 82.4063 67.0893 82.3597 65.1533C83.641 64.7373 84.8584 65.112 86.049 65.26C87.5357 65.4453 88.4397 65.0587 89.2263 63.6453C92.3597 58.012 95.8224 52.5813 99.7757 47.476C100.725 46.2507 101.768 45.0827 103.264 44.5533C105.442 43.7827 106.369 44.484 107.112 45.9C108.925 49.3667 109.433 53.1213 109.682 56.9307C109.976 61.46 110.228 65.9947 110.145 70.5413C110.12 72.0267 110.75 73.124 111.793 74.204C117.129 79.7187 121.162 85.984 122.518 93.7053C122.544 93.8467 122.618 93.9827 122.648 94.124C123.56 98.3013 123.836 98.492 128.022 98.416C129.184 98.396 130.366 98.524 131.512 98.74C133.144 99.0507 133.57 99.8347 133.044 101.424C132.22 103.911 130.642 105.935 128.861 107.78C126.674 110.047 124.34 112.16 121.862 114.109C121.288 114.561 120.73 115.045 120.224 115.571C118.964 116.885 119.254 118.484 120.877 119.367C121.714 119.823 122.696 119.907 123.502 120.471C124.837 121.4 125.114 122.561 124.034 123.779C123.165 124.76 122.164 125.64 121.136 126.455C116.028 130.499 110.78 134.356 105.142 137.635C100.584 140.283 95.889 142.715 90.861 144.325C86.753 145.641 82.4876 146.351 78.1623 146.631C70.197 147.144 62.225 147.227 54.3103 146.129C49.5303 145.467 44.9063 144.075 40.481 142.027C31.2516 137.751 22.965 132.037 15.1063 125.655C14.3717 125.059 13.6583 124.397 13.0863 123.652C12.1357 122.413 12.389 121.408 13.6903 120.504C14.3663 120.033 15.157 119.855 15.901 119.551C17.9877 118.697 18.349 116.805 16.665 115.249C15.377 114.057 13.9756 112.988 12.6437 111.844C10.2543 109.793 7.88768 107.709 6.13032 105.056C5.44232 104.021 4.78631 102.945 4.28233 101.816C3.44631 99.9373 3.94502 99.028 5.93968 98.716C7.30768 98.5013 8.68365 98.3333 10.0943 98.4547C12.7677 98.684 13.569 98.008 14.2317 95.372C15.0303 92.188 15.6863 88.9707 17.113 85.9613C19.1423 81.6773 21.753 77.8013 25.145 74.524C26.617 73.1027 27.121 71.572 27.1117 69.648C27.0917 65.1813 27.1837 60.7147 27.5317 56.26C27.797 52.8933 28.3117 49.5693 29.7703 46.4747C30.865 44.1533 31.9757 43.7507 34.325 44.7627C35.7277 45.3667 36.6877 46.4854 37.573 47.652C41.3383 52.616 44.6904 57.8547 47.745 63.2813C48.9197 65.3693 49.0183 65.456 51.361 65.2294C52.4503 65.1227 53.541 65.0333 54.8917 64.912Z" fill="white"/>
<path fill-rule="evenodd" clip-rule="evenodd" d="M125.096 116.603C125.713 115.75 126.276 115.519 127.457 115.791C129.429 116.247 131.523 116.217 133.569 116.321C138.621 116.577 143.689 116.53 148.719 117.161C153.001 117.698 156.753 119.385 159.775 122.515C161.881 124.698 163.501 127.214 164.696 130.017C167.863 137.43 168.729 145.098 167.549 153.067C166.583 159.606 164.979 166.01 163.716 172.486C162.18 180.359 161.515 188.317 161.183 196.313C161.012 200.479 161.044 200.505 157.007 201.181C153.888 201.701 150.741 201.929 147.579 201.849C147.14 201.838 146.692 201.818 146.268 201.721C145.171 201.467 144.939 201.038 145.369 199.981C145.789 198.951 146.42 198.031 147.244 197.291C149.021 195.698 149.593 193.677 149.648 191.371C149.704 189.01 149.383 186.685 149.177 184.35C148.783 179.894 148.332 175.442 147.893 170.99C147.823 170.261 147.737 169.527 147.584 168.814C147.256 167.297 146.62 166.651 145.087 166.473C142.975 166.227 140.852 166.021 138.719 166.181C136.889 166.317 135.06 166.445 133.235 166.615C130.884 166.835 130.104 167.593 130.111 169.973C130.119 172.613 130.22 175.258 130.435 177.89C130.867 183.165 130.988 188.441 130.772 193.725C130.712 195.185 130.397 196.633 130.288 198.094C130.205 199.173 129.629 199.617 128.644 199.807C124.536 200.601 120.408 201.222 116.219 201.354C115.925 201.363 115.624 201.37 115.341 201.314C114.471 201.145 113.528 200.978 113.161 200.055C112.775 199.079 113.457 198.378 114.072 197.745C114.633 197.167 115.243 196.633 115.861 196.115C117.635 194.633 118.325 192.779 118.129 190.463C117.721 185.638 117.435 180.802 117.08 175.974C116.979 174.586 116.849 173.197 116.663 171.818C116.46 170.333 115.552 169.471 114.087 169.199C110.089 168.461 106.051 168.57 102.017 168.651C100.801 168.677 99.9334 169.425 99.5175 170.521C99.0028 171.883 98.5774 173.255 98.6108 174.783C98.7748 182.491 98.2708 190.187 98.0175 197.887C97.9708 199.279 97.7574 200.663 97.6668 202.054C97.6014 203.063 97.1721 203.678 96.1348 203.882C91.5708 204.778 86.9788 205.162 82.3468 204.619C81.5374 204.525 80.4135 204.594 80.1215 203.551C79.8374 202.534 80.5654 201.758 81.1895 201.027C81.2388 200.97 81.2868 200.91 81.3455 200.873C84.2815 199.013 84.6294 196.198 84.6001 193.01C84.5348 186.034 84.2241 179.073 83.9721 172.105C83.9535 171.593 83.9028 171.077 83.8121 170.575C83.5054 168.861 82.7908 168.023 81.1001 167.918C75.2348 167.551 69.3694 167.442 63.5281 168.309C62.2068 168.506 61.4121 169.311 61.1934 170.601C60.9734 171.901 60.7948 173.214 60.7228 174.527C60.3148 181.854 59.7161 189.163 59.0188 196.465C58.9348 197.35 58.7828 198.217 58.4481 199.034C57.6654 200.941 56.4161 202.138 54.1708 202.21C50.8628 202.317 47.5681 202.159 44.2668 202.063C43.9041 202.051 43.5415 201.954 43.1868 201.865C41.3921 201.421 41.0415 200.63 41.9521 199.026C42.3855 198.262 42.8668 197.523 43.3281 196.774C45.2868 193.586 46.3068 190.135 46.5494 186.387C47.0001 179.434 47.5948 172.49 48.1254 165.542C48.4908 160.778 48.3241 156.007 48.3188 151.238C48.3188 150.519 48.1214 149.775 48.5281 148.981C51.8761 149.581 55.2388 150.25 58.6548 150.503C69.2974 151.287 79.8974 151.171 90.3161 148.519C94.2201 147.527 97.8641 145.809 101.469 144.022C109.113 140.233 116.051 135.378 122.732 130.125C124.055 129.082 125.4 128.075 126.572 126.85C129.776 123.503 128.931 118.797 125.513 117.13C125.343 117.046 125.247 116.799 125.096 116.603Z" fill="white"/>
<path fill-rule="evenodd" clip-rule="evenodd" d="M225.082 180.288C223.764 179.983 223.022 179.4 222.274 178.859C218.382 176.044 215.495 172.387 213.412 168.096C210.263 161.607 208.442 154.802 208.643 147.519C208.79 142.166 208.812 136.81 208.952 131.456C209.064 127.194 208.932 122.947 208.255 118.735C207.572 114.496 205.852 110.763 202.708 107.746C198.304 103.518 193.184 102.227 187.306 103.867C182.682 105.155 178.795 107.77 175.094 110.679C171.098 113.816 167.535 117.402 164.588 121.514C164.079 121.652 163.903 121.288 163.684 121.027C161.975 118.976 159.971 117.271 157.615 116.014C156.834 115.598 156.462 115.267 157.07 114.371C160.494 109.342 163.608 104.071 167.93 99.7269C173.566 94.0629 180.291 90.2896 188.256 89.1749C192.694 88.5536 197.182 88.7363 201.546 90.0842C205.612 91.3403 208.784 93.9056 211.575 96.9776C216.576 102.48 219.296 109.024 220.142 116.371C221.152 125.151 220.775 133.943 220.338 142.739C219.936 150.867 219.292 158.994 220.076 167.138C220.574 172.327 221.85 175.866 225.082 180.288Z" fill="#FFE76B"/>
<path fill-rule="evenodd" clip-rule="evenodd" d="M223.617 184.15C219.732 183.802 216.728 182.48 213.916 180.714C208.534 177.336 204.734 172.59 202.122 166.838C200.008 162.185 198.948 157.257 198.177 152.24C197.562 148.249 196.586 144.337 195.39 140.48C194.801 138.578 193.936 136.802 192.765 135.178C188.314 129.006 181.533 128.289 175.621 131.522C173.9 132.464 172.333 133.689 170.574 134.865C169.472 131.682 168.517 128.541 166.902 125.673C166.64 125.208 166.85 124.91 167.14 124.517C171.22 118.957 176.108 114.264 181.95 110.578C183.693 109.478 185.514 108.558 187.468 107.88C194.066 105.588 199.178 108.393 202.356 113.5C203.861 115.918 204.418 118.648 204.718 121.444C205.301 126.861 205.089 132.286 204.924 137.712C204.725 144.234 204.277 150.772 205.605 157.234C206.858 163.322 209.041 169.049 212.518 174.237C215.094 178.085 218.366 181.178 222.474 183.358C222.722 183.492 222.942 183.68 223.617 184.15Z" fill="#FF87C8"/>
<path fill-rule="evenodd" clip-rule="evenodd" d="M217.035 186.968C208.056 187.773 200.675 185.179 195.119 178.091C191.38 173.32 188.566 168.024 186.275 162.437C185.163 159.723 184.054 157.009 182.632 154.435C181.668 152.685 180.474 151.128 178.995 149.776C177.074 148.019 174.927 146.941 172.123 147.363C171.931 144.829 171.747 142.36 171.548 139.889C171.523 139.581 171.519 139.26 171.758 139.08C174.503 137.033 176.96 134.54 180.511 133.787C184.138 133.017 187.002 134.175 189.27 136.997C190.338 138.325 191.082 139.829 191.6 141.456C192.962 145.727 193.93 150.087 194.611 154.513C195.658 161.321 197.612 167.817 201.423 173.631C205.086 179.219 209.816 183.592 216.072 186.164C216.396 186.297 216.787 186.348 217.035 186.968Z" fill="#47FFF4"/>
<path fill-rule="evenodd" clip-rule="evenodd" d="M68.785 74.3417C65.4143 74.2737 62.345 73.5404 59.5543 71.7057C58.3543 70.9164 57.9237 69.9977 58.1356 68.5937C58.713 64.7644 59.2143 60.9244 59.745 57.0884C59.9143 55.8564 60.1103 54.6271 60.2236 53.3897C60.305 52.4951 60.6929 52.2177 61.5116 52.5431C62.3956 52.895 63.3223 53.099 64.2249 53.375C67.9036 54.4977 71.4543 53.947 74.9943 52.8111C76.6676 52.2724 76.7036 52.2751 76.941 53.8777C77.6689 58.7924 78.4889 63.6924 79.0396 68.6337C79.2143 70.1964 78.6756 71.1057 77.4263 71.8617C74.333 73.7337 72.493 74.1017 68.785 74.3417Z" fill="#47FFF4"/>
<path fill-rule="evenodd" clip-rule="evenodd" d="M68.389 50.1528C66.661 50.4128 64.8277 49.8328 63.005 49.3061C61.245 48.7995 61.0103 48.4208 61.2383 46.6475C61.7796 42.4461 62.393 38.2528 62.913 34.0488C63.049 32.9435 63.481 32.7448 64.4983 33.0061C67.3063 33.7261 70.1343 33.7995 72.9383 32.9515C73.7543 32.7035 74.1343 32.9208 74.2477 33.8141C74.813 38.3088 75.4103 42.8008 76.037 47.2875C76.1636 48.1915 75.777 48.6115 75.0237 48.9648C73.5703 49.6461 71.2143 50.1221 68.389 50.1528Z" fill="#FF87C8"/>
<path fill-rule="evenodd" clip-rule="evenodd" d="M68.5087 29.9667C67.3887 29.9534 66.3101 29.7494 65.2367 29.5054C63.7341 29.1641 63.5887 28.9841 63.7674 27.3987C64.3994 21.8027 64.9087 16.1867 66.0114 10.6574C66.3394 9.01073 66.8128 7.38939 67.3061 5.78406C67.5247 5.07473 67.5608 3.97605 68.6541 4.07872C69.6074 4.1694 69.7328 5.18138 69.9861 5.92005C70.7261 8.06671 71.1447 10.2974 71.5421 12.5267C72.3941 17.2881 72.822 22.1054 73.3608 26.9067C73.6114 29.1494 73.4994 29.2681 71.3381 29.6481C70.4048 29.8107 69.4527 29.8641 68.5087 29.9667Z" fill="#FFE76B"/>
<path fill-rule="evenodd" clip-rule="evenodd" d="M68.5415 113.146C68.0428 113.726 67.6828 114.19 67.2775 114.608C65.7574 116.168 63.7281 116.37 61.9161 115.165C60.1335 113.98 58.7508 110.8 59.1415 108.821C59.2921 108.046 59.6735 107.453 60.4228 107.172C61.1481 106.898 61.7215 107.302 62.2001 107.749C62.5935 108.116 62.6081 108.688 62.5881 109.198C62.5535 110.132 62.9308 110.913 63.4215 111.65C63.8468 112.288 64.4521 112.253 64.8921 111.745C65.5201 111.022 65.8708 110.142 66.0788 109.181C66.2615 108.336 66.5334 107.478 67.4761 107.086C68.9001 106.494 70.2628 107.038 70.8695 108.492C71.2361 109.368 71.4748 110.308 71.9268 111.133C72.6868 112.521 73.3147 112.502 74.0468 111.153C74.4321 110.442 74.6748 109.704 74.6708 108.857C74.6654 107.861 75.1988 107.156 76.2574 107.11C77.1828 107.069 77.7201 107.661 78.0148 108.494C78.8521 110.86 76.5108 115.261 74.0681 115.79C72.3975 116.154 70.8614 115.91 69.7374 114.417C69.4348 114.016 69.0481 113.677 68.5415 113.146Z" fill="#010101"/>
<path fill-rule="evenodd" clip-rule="evenodd" d="M83.984 102.754C84.0174 100.336 85.6041 98.6916 87.9067 98.6916C90.3187 98.6903 92.048 100.548 92.0174 103.106C91.9867 105.652 90.3107 107.54 88.1227 107.49C85.7747 107.438 83.948 105.348 83.984 102.754Z" fill="#020202"/>
<path fill-rule="evenodd" clip-rule="evenodd" d="M45.2341 102.948C45.0247 100.339 47.1434 98.767 49.2234 98.6857C51.5874 98.5924 53.2714 100.392 53.2461 102.892C53.2221 105.398 51.4274 107.402 49.1567 107.46C46.7967 107.523 45.2367 105.728 45.2341 102.948Z" fill="#020202"/>
</svg>
