<svg width="286" height="233" viewBox="0 0 286 233" fill="none" xmlns="http://www.w3.org/2000/svg">
<path fill-rule="evenodd" clip-rule="evenodd" d="M122.717 61.4493C123.964 52.2213 125.129 43.2053 126.413 34.2066C127.531 26.3666 127.936 18.4333 129.46 10.6439C129.94 8.19593 130.408 5.74124 131.393 3.43458C132.117 1.7386 133.239 0.407942 135.165 0.0772751C137.315 -0.292058 139.136 0.673265 140.244 2.7426C141.045 4.23993 141.473 5.87592 141.86 7.52259C143.151 13.0346 143.789 18.6466 144.384 24.2639C145.415 33.9679 146.849 43.6186 148.184 53.2826C148.495 55.5346 148.752 57.7946 148.987 60.0572C149.095 61.0893 149.485 61.2879 150.592 61.5039C153.195 62.0093 154.3 60.8506 155.399 58.7493C157.095 55.5053 159.12 52.4306 161.065 49.3226C162.429 47.1439 163.939 45.0639 165.767 43.2359C167.155 41.848 168.804 40.9639 170.72 40.5466C173.689 39.8986 175.888 40.7666 177.503 43.3386C178.884 45.5399 179.672 47.9773 180.18 50.5119C181.151 55.36 181.108 60.2906 181.389 65.1946C181.472 66.6586 181.479 68.1319 181.428 69.5972C181.395 70.5532 181.721 71.2426 182.377 71.9292C187.955 77.7746 192.017 84.4653 193.691 92.4679C193.72 92.6066 193.807 92.7333 193.881 92.8919C194.36 92.9413 194.384 92.4892 194.515 92.2359C197.115 87.1692 200.86 83.1279 205.412 79.7506C212.637 74.3906 220.825 71.4159 229.544 69.5893C238.759 67.6626 247.792 68.1826 256.64 71.3306C266.919 74.9879 274.588 81.756 279.583 91.4213C282.461 96.9866 284.409 102.931 285.177 109.173C285.959 115.511 285.44 121.773 283.423 127.867C283.237 128.421 283.024 128.985 282.704 129.465C281.763 130.877 280.103 131.004 278.972 129.723C278.096 128.727 277.529 127.515 276.928 126.339C275.317 123.192 273.396 120.249 271.148 117.52C269.737 115.811 268.144 114.307 266.257 113.125C261.676 110.256 255.847 111.765 253.236 116.535C252.051 118.696 251.503 121.049 251.477 123.507C251.425 128.237 252.145 132.851 253.529 137.381C255.224 142.917 257.428 148.291 258.752 153.948C259.807 158.451 260.78 162.953 260.96 167.607C261.416 179.365 258.572 190.277 251.693 199.783C245.037 208.981 235.804 214.611 224.596 216.837C223.817 216.992 222.988 216.967 222.521 217.835C221.221 220.245 218.975 221.476 216.569 222.467C210.764 224.859 204.715 226.301 198.479 226.939C193.219 227.476 187.933 227.576 182.653 227.748C181.397 227.788 180.167 227.619 178.929 227.449C176.792 227.153 175.001 226.253 173.711 224.508C173.237 223.868 172.749 223.539 171.911 223.532C168.608 223.507 165.301 223.62 162.011 223.272C161.381 223.205 161.056 223.436 160.813 223.963C159.348 227.155 156.523 228.284 153.339 228.605C148.005 229.144 142.652 229.467 137.299 228.813C136.503 228.717 135.697 228.561 134.941 228.301C132.537 227.476 131.433 225.792 131.553 223.273C131.573 222.848 131.812 222.425 131.507 221.887C129.427 221.456 127.228 221.509 125.049 221.345C124.444 221.299 124.111 221.616 123.78 222.035C122.013 224.273 119.596 225.103 116.848 225.323C112.012 225.709 107.184 225.919 102.348 225.328C101.391 225.211 100.467 224.985 99.5892 224.613C96.8772 223.461 95.9012 221.616 96.3745 218.649C96.4092 218.439 96.3799 218.219 96.3799 217.872C94.7892 217.872 93.2065 217.868 91.6225 217.873C90.5119 217.877 89.4559 217.631 88.3825 217.347C84.8132 216.405 82.9146 214.083 82.5732 210.473C82.2332 206.9 83.3652 203.967 86.5385 202.029C88.7639 200.672 91.2692 200.032 93.7679 199.476C95.2706 199.141 95.9039 198.465 96.2679 196.943C97.2212 192.96 99.3639 189.672 102.919 187.489C103.607 187.065 103.555 186.592 103.532 186.037C103.34 181.123 103.229 176.204 102.9 171.299C102.487 165.151 101.971 159.008 101.616 152.855C101.452 149.997 101.233 147.14 101.36 144.281C101.4 143.393 101.119 142.969 100.387 142.587C93.6612 139.065 87.5745 134.592 81.6039 129.948C80.3865 129 79.2132 128.008 78.1132 126.92C74.7692 123.607 75.6479 118.924 79.0065 117.184C79.1946 117.088 79.3332 116.899 79.5732 116.684C77.7866 115.052 76.0252 113.439 74.2612 111.829C72.4052 110.135 70.8332 108.211 69.5212 106.068C68.7919 104.875 68.1532 103.645 67.7425 102.301C66.6812 98.8346 68.0826 96.1746 71.5759 95.1492C73.2732 94.6506 75.0306 94.4759 76.7959 94.4772C77.5892 94.4786 77.9785 94.2372 78.1265 93.4186C78.3585 92.1212 78.6572 90.8293 79.0226 89.5639C80.9172 83.0093 84.4692 77.4079 89.1039 72.4826C90.1359 71.3852 90.6172 70.2906 90.6172 68.8013C90.6132 63.0759 90.7372 57.3506 91.5879 51.6719C91.9932 48.9693 92.7706 46.3773 94.0999 43.9759C95.9625 40.6106 98.5999 39.5973 102.251 40.7853C104.581 41.544 106.304 43.1026 107.791 44.9666C110.405 48.2466 112.572 51.8253 114.712 55.4199C115.724 57.1199 116.723 58.8346 117.651 60.5826C118.084 61.4 118.556 61.8653 119.539 61.5852C120.539 61.2986 121.576 61.4239 122.717 61.4493Z" fill="black"/>
<path fill-rule="evenodd" clip-rule="evenodd" d="M30.0577 232.561C23.8857 232.306 18.3764 232.247 12.9897 230.963C9.81908 230.209 6.89641 228.926 4.26841 226.954C-2.55025 221.839 -0.642253 210.537 6.05774 207.491C7.06974 207.031 7.19774 206.461 7.18174 205.467C7.12307 202.137 8.03908 199.089 10.2857 196.549C11.7337 194.913 13.5471 193.831 15.6937 193.377C16.5724 193.191 17.0191 192.827 17.2017 191.838C17.6257 189.543 18.8431 187.623 20.5484 186.031C21.4577 185.181 22.3777 184.335 23.3377 183.542C25.4297 181.81 26.9804 179.694 27.6737 177.069C28.5111 173.894 30.9844 173.161 33.8004 175.114C36.7764 177.179 38.0324 180.287 38.2831 183.798C38.4298 185.843 38.4257 187.903 38.3911 189.955C38.3711 191.161 38.7644 191.842 39.9897 192.174C41.4057 192.557 42.6724 193.333 43.9204 194.109C47.4191 196.286 49.7017 199.291 50.0324 203.493C50.1364 204.797 50.7017 205.55 51.6871 206.335C54.9124 208.907 56.7537 212.259 57.3231 216.413C57.7697 219.669 57.6164 222.682 55.6151 225.427C53.3604 228.523 50.3738 230.498 46.6591 231.375C40.9644 232.721 35.1724 232.678 30.0577 232.561Z" fill="black"/>
<path fill-rule="evenodd" clip-rule="evenodd" d="M122.298 65.1609C122.062 66.9862 122.107 68.8049 122.046 70.6142C121.998 71.9902 122.619 72.8275 123.562 73.5862C129.273 78.1675 135.595 79.3888 142.553 76.9862C143.381 76.7008 144.177 76.3155 144.97 75.9435C148.643 74.2209 150.829 71.6649 149.883 67.2942C149.735 66.6089 149.862 65.8648 149.862 65.1075C150.998 64.8088 152.063 65.1329 153.134 65.2422C155.511 65.4822 155.647 65.3982 156.795 63.3702C159.798 58.0689 163.051 52.9262 166.711 48.0488C167.637 46.8142 168.609 45.6089 170.022 44.8809C172.409 43.6489 173.625 44.0328 174.791 46.4408C176.355 49.6715 176.833 53.1622 177.069 56.6875C177.366 61.1528 177.621 65.6248 177.529 70.1022C177.494 71.8448 178.091 73.1475 179.321 74.3875C183.879 78.9875 187.361 84.2809 189.179 90.5582C189.647 92.1742 189.927 93.8449 190.331 95.4822C190.93 97.9022 191.722 98.5169 194.186 98.4195C195.661 98.3622 197.117 98.4102 198.565 98.7115C200.773 99.1715 201.167 99.8382 200.253 101.93C199.274 104.166 197.902 106.161 196.174 107.892C194.151 109.917 192.057 111.866 189.817 113.656C189.13 114.205 188.437 114.758 187.823 115.385C186.239 117.004 186.581 118.638 188.647 119.51C189.255 119.766 189.891 119.964 190.474 120.265C192.393 121.26 192.598 122.449 191.15 124.108C190.766 124.549 190.351 124.976 189.898 125.344C181.607 132.061 172.915 138.14 163.09 142.464C156.121 145.529 148.79 146.726 141.246 146.864C138.238 146.92 135.227 146.806 132.221 146.856C122.11 147.022 112.627 144.749 103.675 139.986C95.99 135.897 88.9754 130.869 82.2114 125.449C81.5847 124.948 81.0034 124.361 80.518 123.725C79.4847 122.377 79.6954 121.296 81.158 120.452C81.8487 120.053 82.6354 119.818 83.3767 119.502C85.3127 118.68 85.7087 117.022 84.266 115.502C83.5647 114.761 82.726 114.149 81.9474 113.478C78.7234 110.705 75.3807 108.052 73.054 104.394C72.422 103.398 71.8274 102.382 71.4807 101.257C71.038 99.8288 71.39 99.1902 72.8394 98.8275C74.4114 98.4342 76.0207 98.3395 77.6474 98.4062C80.3447 98.5168 80.9594 98.0462 81.638 95.4035C82.1127 93.5569 82.4354 91.6662 83.006 89.8529C84.8447 83.9982 88.1287 78.9875 92.406 74.6542C93.806 73.2355 94.3954 71.7782 94.43 69.8035C94.5354 63.7195 94.518 57.6182 95.5554 51.5875C95.9074 49.5529 96.5127 47.5902 97.5367 45.7889C98.4567 44.1702 99.19 43.9569 101.013 44.4955C102.739 45.0102 103.865 46.2622 104.91 47.5902C107.271 50.5915 109.37 53.7809 111.386 57.0195C112.781 59.2595 114.157 61.5182 115.406 63.8409C116.071 65.0809 116.937 65.4435 118.262 65.3088C119.547 65.1795 120.838 64.7435 122.298 65.1609Z" fill="#FFFEFE"/>
<path fill-rule="evenodd" clip-rule="evenodd" d="M104.815 145.257C105.307 145.068 105.56 145.217 105.824 145.345C113.844 149.233 122.42 150.57 131.22 150.805C134.375 150.889 137.534 150.864 140.69 150.816C151.359 150.653 161.426 148.252 170.834 143.048C177.019 139.625 182.86 135.73 188.447 131.425C191.003 129.454 191.027 129.42 193.768 131.289C201.647 136.665 207.587 143.752 211.806 152.246C216.808 162.321 219.863 172.988 221.199 184.17C221.863 189.721 222.075 195.286 222.242 200.86C222.391 205.781 221.14 210.449 219.547 215.048C218.914 216.876 217.475 217.845 215.819 218.557C211.35 220.474 206.704 221.81 201.902 222.558C195.286 223.588 188.606 223.702 181.927 223.826C181.707 223.83 181.487 223.818 181.267 223.82C176.44 223.857 175.343 220.442 174.828 216.969C174.682 215.981 175.416 215.732 176.11 215.478C178.319 214.673 180.611 214.172 182.908 213.693C184.059 213.453 185.264 213.261 185.683 211.882C186.095 210.526 185.246 209.672 184.458 208.788C180.342 204.166 178.502 198.653 177.87 192.581C177.394 188.006 178.868 184.058 181.183 180.298C182.194 178.66 183.483 177.257 185.067 176.142C185.547 175.804 186.044 175.492 186.515 175.14C187.755 174.21 188.072 173.112 187.394 172.162C186.767 171.289 185.692 171.142 184.443 171.9C183.443 172.506 182.42 173.142 181.591 173.952C176.84 178.585 173.904 184.068 173.922 190.878C173.939 197.381 175.922 203.277 179.38 208.725C179.652 209.153 179.934 209.577 180.222 210.018C179.332 210.754 178.256 210.736 177.291 211.008C175.944 211.389 174.627 211.817 173.379 212.449C171.546 213.377 170.624 214.809 170.892 216.904C171.003 217.773 171.12 218.638 171.27 219.78C168.468 219.881 165.73 219.98 162.979 219.826C162.111 219.78 162.118 219.265 162.192 218.62C162.771 213.66 162.855 208.666 163.128 203.684C163.71 193.061 164.282 182.434 164.855 171.809C165.018 168.804 165.178 165.8 165.32 162.796C165.347 162.213 165.347 161.617 165.252 161.045C165.091 160.054 164.463 159.466 163.448 159.45C162.426 159.433 161.819 160.02 161.622 161.008C161.551 161.364 161.551 161.736 161.532 162.102C160.792 175.952 160.122 189.806 159.283 203.649C158.976 208.698 159.042 213.784 158.216 218.792C157.418 223.644 156.551 224.356 151.704 224.84C147.678 225.24 143.65 225.324 139.614 225.134C138.664 225.09 137.707 224.978 136.782 224.776C135.332 224.457 135.132 223.909 135.896 222.59C136.455 221.625 137.247 220.841 138.078 220.128C140.156 218.342 141.122 216.174 141.163 213.386C141.371 199.51 141.426 185.637 140.86 171.77C140.711 168.106 140.375 164.45 140.13 160.789C140.091 160.202 140.079 159.62 139.619 159.157C138.834 158.365 137.603 158.498 136.976 159.464C136.643 159.98 136.58 160.556 136.614 161.154C137.467 176.626 137.426 192.114 137.338 207.601C137.327 209.509 137.346 211.42 137.294 213.328C137.21 216.416 135.583 218.092 132.548 218.116C130.498 218.132 128.443 217.99 126.391 217.898C126.191 217.889 125.998 217.742 125.892 217.697C126.979 205.74 128.051 193.845 129.147 181.953C129.699 175.962 130.304 169.977 130.872 163.99C130.934 163.334 130.97 162.666 130.906 162.014C130.818 161.116 130.288 160.534 129.36 160.422C128.346 160.3 127.612 160.761 127.326 161.712C127.095 162.477 127.016 163.296 126.94 164.097C126.034 173.592 125.246 183.098 124.207 192.577C123.463 199.364 123.311 206.196 122.474 212.97C122.275 214.573 122.038 216.166 121.623 217.732C121.075 219.801 119.76 221.022 117.635 221.289C112.811 221.894 107.971 221.942 103.134 221.514C102.074 221.421 100.72 221.392 100.258 220.24C99.787 219.068 100.864 218.221 101.538 217.402C102.468 216.272 103.471 215.166 104.695 214.348C107.475 212.493 108.467 209.992 108.29 206.642C107.771 196.824 107.484 186.992 107.079 177.165C106.7 168 105.836 158.868 105.032 149.732C104.899 148.224 104.883 146.704 104.815 145.257Z" fill="#FFFEFE"/>
<path fill-rule="evenodd" clip-rule="evenodd" d="M225.993 194.882C225.494 185.081 224.329 175.709 221.567 166.6C219.135 158.574 216.081 150.81 211.391 143.789C210.537 142.509 209.711 141.169 208.639 140.086C207.29 138.725 207.163 137.186 207.343 135.465C207.757 131.498 208.931 127.714 210.081 123.927C212.667 115.406 215.914 107.185 220.943 99.7475C224.922 93.8675 229.741 88.8795 236.205 85.8275C245.218 81.5715 254.613 80.7062 264.275 83.4102C267.553 84.3275 270.119 86.3182 272.625 88.5275C274.917 90.5462 276.203 93.1048 277.35 95.8062C279.103 99.9382 280.422 104.201 281.203 108.626C281.471 110.15 281.562 111.678 281.462 113.401C280.791 112.955 280.781 112.287 280.565 111.77C278.051 105.757 273.982 101.047 268.513 97.5768C260.466 92.4728 250.194 93.4208 242.515 99.2075C236.778 103.531 233.694 109.474 232.17 116.341C230.717 122.882 230.969 129.458 231.902 136.033C232.769 142.135 234.399 148.093 235.421 154.167C236.753 162.092 237.411 170.044 236.075 178.026C235.107 183.802 232.849 188.98 228.474 193.065C227.789 193.704 227.103 194.337 225.993 194.882Z" fill="#FF87C8"/>
<path fill-rule="evenodd" clip-rule="evenodd" d="M224.254 213.153C225.608 208.689 226.298 204.366 226.084 199.928C226.059 199.394 226.128 198.982 226.808 198.792C228.787 198.234 230.208 196.809 231.616 195.425C236.528 190.598 239.07 184.585 240.035 177.89C241.283 169.23 240.566 160.625 239.004 152.058C237.862 145.785 236.12 139.62 235.47 133.256C234.695 125.662 234.754 118.144 237.995 111.006C240.794 104.844 245.399 100.629 251.952 98.8503C257.643 97.3076 263.058 98.205 267.832 101.778C273.302 105.872 277.063 111.157 278.49 117.946C278.623 118.589 278.715 119.245 278.775 119.901C278.804 120.224 278.955 120.602 278.508 120.976C277.534 119.613 276.584 118.253 275.599 116.918C273.58 114.185 271.302 111.722 268.399 109.884C261.812 105.713 253.434 107.898 249.748 114.814C247.596 118.85 247.363 123.192 247.703 127.662C248.144 133.436 249.79 138.897 251.716 144.292C253.792 150.106 255.534 156.014 256.496 162.114C258.48 174.69 255.859 186.31 249.002 197C247.604 199.177 245.844 201.054 243.924 202.768C238.992 207.166 233.404 210.468 227.152 212.628C226.328 212.912 225.484 213.13 224.254 213.153Z" fill="#47FFF4"/>
<path fill-rule="evenodd" clip-rule="evenodd" d="M203.824 134.607C200.591 131.619 197.463 129.215 193.881 127.187C195.007 125.431 196.271 123.789 195.977 121.581C195.68 119.343 194.277 117.927 192.371 116.73C194.235 115.022 195.999 113.401 197.767 111.785C200.009 109.735 201.831 107.359 203.244 104.674C203.584 104.029 203.884 103.353 204.124 102.662C205.437 98.8661 203.841 95.9541 199.923 94.9874C199.287 94.8301 198.631 94.7461 197.901 94.6127C198.017 93.5887 198.569 92.8127 199.069 92.0234C201.455 88.2554 204.537 85.1754 208.145 82.5567C215.192 77.4407 223.184 74.7767 231.628 73.1607C239.833 71.5914 247.825 72.3647 255.676 75.0767C258.175 75.9407 260.499 77.1407 262.632 78.8434C261.623 78.7061 260.615 78.5474 259.603 78.4354C242.373 76.5381 228.511 82.2807 218.424 96.5914C212.296 105.282 208.485 115.001 205.753 125.191C204.959 128.158 204.232 131.141 203.824 134.607Z" fill="#FFE76B"/>
<path fill-rule="evenodd" clip-rule="evenodd" d="M127.85 52.3158C135.235 54.6011 137.309 54.4998 143.91 52.3104C144.59 53.4184 144.485 54.7131 144.65 55.9211C145.236 60.2051 146.026 64.4598 146.427 68.7731C146.562 70.2344 146.07 71.0638 144.9 71.8371C139.785 75.2198 131.69 75.1371 126.774 71.6131C125.938 71.0131 125.425 70.3985 125.519 69.2758C126.003 63.5864 127.087 57.9891 127.85 52.3158Z" fill="#47FFF4"/>
<path fill-rule="evenodd" clip-rule="evenodd" d="M141.421 32.6146C141.833 35.6479 142.201 38.3946 142.577 41.1412C142.845 43.1026 143.06 45.0719 143.417 47.0159C143.617 48.1106 143.226 48.6533 142.262 49.0239C138.116 50.6159 133.981 50.6093 129.816 49.0733C128.705 48.6639 128.436 48.0013 128.6 46.8839C129.16 43.0399 129.645 39.1866 130.165 35.3372C130.272 34.5439 130.402 33.7546 130.553 32.7533C134.121 33.7066 137.64 33.9759 141.421 32.6146Z" fill="#FF87C8"/>
<path fill-rule="evenodd" clip-rule="evenodd" d="M103.798 192.061C103.982 197.463 104.138 202.717 104.357 207.97C104.405 209.117 104.005 209.95 103.13 210.613C101.961 211.499 100.829 212.433 99.8527 213.531C99.3674 214.078 98.7914 214.214 98.0954 214.209C96.118 214.194 94.1407 214.218 92.1634 214.243C91.2727 214.254 90.4394 214.025 89.582 213.809C87.6114 213.31 86.598 212.081 86.4354 210.09C86.2674 208.037 86.8074 206.329 88.7287 205.255C90.542 204.245 92.562 203.841 94.518 203.251C95.1474 203.061 95.802 202.949 96.4234 202.739C98.218 202.135 99.4367 201.022 99.7394 199.039C100.102 196.671 101.082 194.569 102.674 192.763C102.91 192.497 103.107 192.173 103.798 192.061Z" fill="#FFFEFE"/>
<path fill-rule="evenodd" clip-rule="evenodd" d="M135.922 29.9453C134.735 29.9867 133.586 29.7893 132.438 29.5106C131.415 29.2626 131.038 28.7493 131.168 27.636C131.703 23.0506 132.043 18.4426 132.847 13.8893C133.318 11.216 133.722 8.52927 134.611 5.9573C134.878 5.18394 134.924 3.98394 136.06 4.04531C136.992 4.0946 137.12 5.16928 137.363 5.90261C138.532 9.47194 139.08 13.1773 139.598 16.8786C140.084 20.3613 140.424 23.8653 140.811 27.3626C140.996 29.0346 140.904 29.1439 139.191 29.5893C138.766 29.6986 138.332 29.8013 137.896 29.8426C137.242 29.9066 136.58 29.9146 135.922 29.9453Z" fill="#FFE76B"/>
<path fill-rule="evenodd" clip-rule="evenodd" d="M46.7061 207.472C48.7461 209.011 50.8288 210.447 52.2315 212.721C55.3035 217.697 53.3035 224.54 47.9341 226.855C45.4128 227.944 42.7101 228.3 39.9968 228.453C31.6328 228.927 23.2861 228.815 15.0008 227.417C12.1528 226.936 9.47813 225.924 7.11812 224.221C3.30079 221.468 2.79946 215.644 6.04746 212.22C6.71813 211.513 7.49946 211.004 8.42346 210.688C9.25013 210.404 10.0595 210.071 10.8768 209.76C11.8315 209.057 12.9448 209.12 14.0408 209.115C19.2341 209.092 24.4328 209.021 29.6221 209.157C34.4248 209.281 39.0848 208.613 43.7208 207.52C44.7035 207.288 45.7021 206.892 46.7061 207.472Z" fill="#47FFF4"/>
<path fill-rule="evenodd" clip-rule="evenodd" d="M46.7061 207.472C43.4341 208.257 40.1742 209.084 36.8248 209.507C36.1008 209.599 35.3888 209.773 34.6515 209.772C26.7275 209.767 18.8021 209.764 10.8768 209.76C11.4475 208.841 11.5608 207.888 11.2795 206.827C10.7942 204.993 11.1102 203.208 11.7808 201.461C12.7275 199.001 14.4995 197.516 17.0688 197.04C18.1502 196.839 19.2222 196.653 20.2288 196.195C25.6142 195.604 31.0035 195.052 36.4368 195.217C38.5542 195.567 40.4408 196.468 42.2208 197.629C44.6968 199.244 46.1488 201.469 46.2328 204.473C46.2608 205.5 46.4595 206.488 46.7061 207.472Z" fill="#FF87C8"/>
<path fill-rule="evenodd" clip-rule="evenodd" d="M36.4368 195.217C34.9208 195.86 33.29 195.753 31.71 195.897C28.6714 196.173 25.6234 196.334 22.5794 196.529C21.7767 196.581 20.9767 196.554 20.2287 196.193C20.6287 195.489 20.9367 194.773 20.9007 193.922C20.8154 191.96 21.7074 190.396 23.0354 189.046C23.6007 188.473 24.186 187.914 24.8087 187.408C27.7474 185.005 30.2314 182.27 31.2354 178.577C32.1487 178.397 32.418 178.991 32.7447 179.426C33.8807 180.939 34.366 182.664 34.4354 184.549C34.5207 186.889 34.3367 189.234 34.6647 191.568C34.866 192.984 35.2968 194.267 36.4368 195.217Z" fill="#FFE76B"/>
<path fill-rule="evenodd" clip-rule="evenodd" d="M135.956 113.15C135.536 113.652 135.273 114.007 134.972 114.324C132.713 116.698 129.732 116.48 127.885 113.786C127.085 112.62 126.644 111.298 126.477 109.899C126.426 109.47 126.445 109.008 126.549 108.591C126.798 107.594 127.572 107.023 128.457 107.136C129.39 107.258 129.924 107.831 129.941 108.75C129.958 109.732 130.168 110.642 130.677 111.468C131.22 112.351 131.729 112.39 132.365 111.611C132.981 110.858 133.233 109.936 133.526 109.027C134.053 107.387 134.612 106.92 135.912 106.89C137.298 106.858 137.846 107.331 138.454 109.098C138.764 109.998 139.025 110.918 139.642 111.676C140.209 112.372 140.761 112.286 141.232 111.594C141.737 110.848 141.889 109.992 142.001 109.104C142.186 107.618 142.777 107.035 143.825 107.126C144.844 107.214 145.472 108.003 145.477 109.342C145.484 111.243 144.868 112.96 143.61 114.382C141.776 116.455 139.197 116.502 137.237 114.562C136.828 114.155 136.46 113.707 135.956 113.15Z" fill="#010101"/>
<path fill-rule="evenodd" clip-rule="evenodd" d="M159.425 103.102C159.402 105.698 157.748 107.519 155.472 107.453C153.12 107.382 151.39 105.441 151.396 102.88C151.398 100.365 152.91 98.7248 155.228 98.7222C157.702 98.7195 159.448 100.541 159.425 103.102Z" fill="#020202"/>
<path fill-rule="evenodd" clip-rule="evenodd" d="M112.588 102.936C112.634 100.352 114.419 98.6149 116.922 98.7202C119.184 98.8149 120.712 100.595 120.634 103.043C120.555 105.54 118.678 107.471 116.347 107.454C114.084 107.436 112.542 105.582 112.588 102.936Z" fill="#020202"/>
<path fill-rule="evenodd" clip-rule="evenodd" d="M29.7921 216.35C30.6628 215.318 31.3388 214.454 32.0801 213.652C33.0895 212.56 34.1215 212.372 34.9628 213.048C35.8308 213.747 35.8815 214.846 34.9948 215.976C33.9988 217.242 32.9788 218.494 31.8815 219.671C30.6535 220.988 29.6015 221.032 28.2601 219.816C27.2321 218.883 26.3095 217.832 25.3641 216.811C25.1201 216.546 24.9121 216.218 24.7908 215.882C24.4868 215.051 24.5895 214.268 25.3601 213.73C26.1415 213.184 26.8975 213.351 27.5428 213.995C28.2655 214.719 28.9588 215.474 29.7921 216.35Z" fill="#030101"/>
<path fill-rule="evenodd" clip-rule="evenodd" d="M35.1957 205.662C35.2117 204.995 35.2944 204.355 35.6064 203.749C35.9797 203.025 36.5397 202.65 37.3677 202.718C38.2117 202.787 38.6824 203.301 38.8877 204.07C39.1771 205.154 39.1171 206.243 38.8117 207.314C38.5411 208.265 37.9184 208.863 36.9051 208.771C36.0037 208.69 35.4904 208.045 35.3171 207.187C35.2157 206.69 35.2317 206.171 35.1957 205.662Z" fill="#0B0B04"/>
<path fill-rule="evenodd" clip-rule="evenodd" d="M22.0349 206.094C22.0136 205.269 22.1429 204.469 22.5576 203.756C22.9083 203.149 23.4669 202.786 24.1949 202.845C24.9163 202.906 25.4123 203.317 25.6549 204.004C26.0363 205.073 26.0189 206.162 25.7496 207.25C25.5163 208.196 24.9696 208.866 23.9309 208.84C22.9016 208.813 22.3829 208.093 22.1283 207.185C22.0309 206.84 22.0629 206.458 22.0349 206.094Z" fill="#0B0C04"/>
</svg>
