<svg width="323" height="275" viewBox="0 0 323 275" fill="none" xmlns="http://www.w3.org/2000/svg">
<path fill-rule="evenodd" clip-rule="evenodd" d="M177.631 121.977C201.263 122.112 223.261 127.964 242.775 141.549C257.375 151.71 270.379 163.654 280.329 178.606C286.907 188.488 291.785 199.234 296.326 210.149C297.281 212.45 298.143 214.792 299.034 217.12C299.778 219.068 299.761 219.01 301.789 218.765C305.474 218.316 309.125 218.341 312.549 220.068C318.878 223.261 322.987 229.006 322.326 236.812C322.037 240.212 321.291 243.476 319.679 246.505C316.846 251.828 312.534 255.165 306.526 256.121C305.067 256.354 304.141 256.865 303.335 258.277C301.099 262.188 297.439 264.289 293.119 265.286C288.722 266.302 284.517 265.524 280.442 263.796C279.027 263.194 277.633 262.522 276.297 261.765C275.451 261.284 274.909 261.34 274.201 262.033C272.51 263.682 270.553 264.985 268.395 265.962C263.109 268.357 257.858 268.265 252.711 265.58C249.69 264.005 246.995 261.985 244.945 259.212C244.485 258.59 244.117 258.224 243.173 258.373C230.157 260.428 225.165 250.681 226.05 242.128C226.475 238.017 227.699 234.229 230.646 231.186C231.274 230.538 231.175 229.936 230.933 229.189C228.126 220.529 224.163 212.462 218.469 205.328C208.346 192.648 195.017 185.196 179.361 181.616C173.403 180.253 167.362 179.654 161.253 179.465C152.154 179.185 143.457 180.869 135.054 184.294C122.713 189.325 111.43 196.07 101.581 205.089C97.3541 208.958 93.4394 213.138 90.4474 218.092C89.0381 220.425 87.9487 222.894 86.9581 225.43C86.5527 226.462 86.8314 226.864 87.6901 227.288C88.8794 227.876 89.9287 228.68 90.9154 229.569C94.8847 233.142 96.6967 237.589 96.3914 242.918C96.1607 246.937 95.2127 250.749 93.1061 254.212C90.3301 258.776 86.3541 261.718 81.0581 262.636C79.2941 262.942 78.1727 263.528 77.1741 265.204C74.9234 268.981 71.2621 270.993 67.0034 271.926C62.5941 272.893 58.3981 272.1 54.3407 270.33C52.6634 269.598 51.0501 268.158 49.3861 268.124C47.7994 268.094 46.6807 270.136 45.1914 271.065C38.6781 275.126 32.1207 275.438 25.4634 271.458C22.9861 269.978 20.7487 268.208 19.0234 265.866C18.5101 265.169 18.0847 264.866 17.0607 265.02C5.41407 266.768 -0.453926 258.886 0.0273969 249.452C0.214064 245.824 1.17274 242.366 3.37007 239.35C5.21008 236.822 7.51807 234.99 10.6621 234.452C11.7581 234.265 12.1834 233.877 12.3447 232.669C12.9567 228.11 15.7541 224.968 19.5247 222.661C20.6767 221.956 21.3954 221.168 21.7687 219.889C23.6927 213.301 26.4661 207.07 30.1647 201.301C39.2421 187.138 49.7581 174.172 62.7527 163.385C78.2501 150.52 95.5928 140.817 114.359 133.578C124.859 129.526 135.586 126.308 146.717 124.56C153.097 123.56 159.518 122.894 165.965 122.462C169.847 122.202 173.731 122.038 177.631 121.977Z" fill="black"/>
<path fill-rule="evenodd" clip-rule="evenodd" d="M43.4288 220.073C42.2555 221.066 41.0155 221.989 40.0208 223.176C39.6048 223.672 39.2395 223.941 38.5595 223.486C34.8808 221.021 30.7662 220.212 26.4075 220.384C26.1248 220.394 25.8288 220.401 25.5662 220.121C25.5982 219.033 26.1448 218.058 26.5408 217.052C30.1702 207.82 35.5875 199.657 41.4675 191.733C55.7742 172.457 73.8168 157.674 95.0275 146.609C108.018 139.832 121.534 134.437 135.734 130.777C143.286 128.83 150.979 127.77 158.717 126.964C164.703 126.338 170.71 126.001 176.725 125.864C185.942 125.652 195.009 126.881 204.005 128.82C216.269 131.458 227.69 136.21 238.107 143.098C251.653 152.056 263.669 162.794 273.564 175.753C278.386 182.069 282.358 188.933 285.797 196.086C288.878 202.496 291.798 208.985 294.333 215.637C294.586 216.304 295.005 216.934 294.925 217.937C288.294 212.809 281.238 209.594 272.734 211.928C271.873 211.693 271.802 210.858 271.49 210.233C267.077 201.418 262.145 192.889 255.68 185.432C249.916 178.781 243.536 172.7 236.521 167.324C221.879 156.105 205.762 148.006 187.621 144.2C180.149 142.632 172.63 143.122 165.098 143.689C160.124 144.064 155.169 144.541 150.266 145.466C137.359 147.906 125.091 152.348 113.101 157.578C100.739 162.97 89.2062 169.78 78.7942 178.409C66.9822 188.201 56.2142 198.902 48.6262 212.458C47.1328 215.126 45.4835 217.756 43.4288 220.073Z" fill="#FFE76B"/>
<path fill-rule="evenodd" clip-rule="evenodd" d="M43.4288 220.073C43.5875 219.668 43.6795 219.22 43.9115 218.863C47.7315 212.948 51.2555 206.843 55.3928 201.14C59.5475 195.412 64.4902 190.395 69.6702 185.611C74.7902 180.879 80.1648 176.461 85.7982 172.333C92.6982 167.279 100.125 163.163 107.794 159.467C119.448 153.847 131.515 149.329 144.09 146.225C150.578 144.623 157.17 143.733 163.833 143.188C167.782 142.865 171.738 142.652 175.686 142.565C182.7 142.411 189.593 143.54 196.253 145.683C211.392 150.553 225.404 157.607 237.832 167.649C245.498 173.845 252.77 180.46 258.762 188.32C264.019 195.216 268.409 202.679 272.189 210.491C272.411 210.949 272.554 211.448 272.734 211.928C270.169 212.932 267.87 214.341 266.086 216.472C265.46 217.219 264.951 217.068 264.224 216.631C260.806 214.573 257.08 213.683 253.093 213.761C251.226 213.796 249.482 214.335 247.717 214.817C246.465 214.481 246.153 213.332 245.686 212.371C242.542 205.885 238.873 199.732 234.708 193.84C227.478 183.615 218.142 175.925 207.19 170.005C198.346 165.224 188.69 163.664 178.93 162.289C173.966 161.592 168.977 161.857 164.01 161.609C157.958 161.308 151.869 162.131 145.917 163.529C131.112 167.005 117.39 172.983 104.873 181.624C97.5595 186.671 90.5595 192.168 84.4182 198.601C78.0808 205.241 72.3835 212.433 67.6848 220.363C67.2408 221.111 66.9102 221.976 65.9022 222.171C64.2942 221.34 62.7262 220.416 61.0702 219.693C55.1462 217.109 49.2448 216.946 43.4288 220.073Z" fill="#FF87C8"/>
<path fill-rule="evenodd" clip-rule="evenodd" d="M65.9022 222.171C68.6488 217.397 71.8002 212.904 75.1708 208.548C80.8015 201.272 87.0962 194.682 94.3068 188.928C99.5322 184.763 104.822 180.716 110.556 177.284C120.423 171.378 130.863 166.838 142.025 163.971C147.569 162.547 153.132 161.507 158.878 161.23C165.407 160.915 171.899 161.23 178.387 161.754C186.144 162.38 193.719 163.986 201.075 166.555C205.752 168.19 209.883 170.867 214.057 173.447C220.404 177.367 225.925 182.223 230.755 187.936C236.906 195.215 241.816 203.25 246.012 211.759C246.527 212.807 246.884 213.947 247.719 214.815C244.4 216.387 241.618 218.551 239.739 221.784C238.988 223.075 238.346 224.423 238.309 225.896C238.279 227.196 237.777 227.66 236.553 227.867C234.732 228.175 234.766 228.254 234.16 226.515C230.399 215.712 225.024 205.822 216.927 197.663C206.514 187.175 193.858 180.735 179.435 177.631C172.873 176.218 166.241 175.628 159.559 175.547C150.259 175.436 141.385 177.442 132.811 181.012C120.931 185.958 110.013 192.464 100.347 200.972C94.7055 205.935 89.5842 211.371 86.1695 218.198C85.1815 220.171 84.3468 222.202 83.6708 224.296C83.4028 225.128 83.0495 225.432 82.0908 225.311C78.5522 224.871 75.0615 225.247 71.6562 226.31C71.0468 226.499 70.5322 226.603 70.1042 225.996C68.9868 224.414 67.2982 223.451 65.9022 222.171Z" fill="#47FFF4"/>
<path fill-rule="evenodd" clip-rule="evenodd" d="M318.474 234.918C318.38 239.132 317.602 242.456 315.796 245.493C313.708 249.005 310.724 251.322 306.671 252.15C305.45 252.398 304.226 252.632 302.995 252.826C301.96 252.99 301.162 253.492 300.862 254.492C299.179 260.108 291.923 262.71 286.315 261.574C283.112 260.928 280.222 259.518 277.388 257.956C274.73 256.49 274.451 256.522 272.227 258.612C269.327 261.336 266.086 263.322 262.006 263.73C260.355 263.896 258.767 263.732 257.24 263.217C253.024 261.79 249.479 259.465 247.223 255.472C246.359 253.942 245.51 253.59 243.732 254.213C241.718 254.917 239.707 254.912 237.66 254.561C233.655 253.876 231.298 251.369 230.316 247.574C229.263 243.5 229.914 239.549 231.806 235.834C233.274 232.954 235.66 231.316 238.931 230.989C240.948 230.785 241.926 229.736 242.104 227.769C242.583 222.473 246.89 218.17 252.299 217.73C256.216 217.412 259.876 218.214 263.102 220.621C265.371 222.316 266.268 222.274 268.083 220.016C271.467 215.805 275.824 214.44 281.004 215.281C282.967 215.601 284.864 216.222 286.607 217.173C289.367 218.681 292.198 220.101 293.82 223.062C294.471 224.254 295.354 224.408 296.883 224.002C298.44 223.592 299.974 223.044 301.555 222.766C306.4 221.916 310.88 222.528 314.614 226.164C317.307 228.781 318.64 231.874 318.474 234.918Z" fill="#FFFEFE"/>
<path fill-rule="evenodd" clip-rule="evenodd" d="M92.4771 243.177C92.2718 247.205 90.9838 251.829 87.1518 255.447C84.9918 257.485 82.4011 258.568 79.5065 259.023C78.6385 259.159 77.7718 259.321 76.9038 259.461C75.9545 259.615 75.2131 260.111 74.9398 261.02C73.0891 267.173 65.0678 269.341 60.0105 268.109C57.3425 267.459 54.8811 266.376 52.4665 265.136C51.7491 264.767 51.0465 264.372 50.3451 263.975C49.1611 263.303 48.1118 263.504 47.1291 264.403C46.1558 265.292 45.2038 266.219 44.1571 267.016C36.5345 272.816 26.2118 270.685 21.4078 262.349C20.3505 260.513 19.6491 260.161 17.6438 260.856C15.7704 261.503 13.9011 261.507 12.0011 261.221C7.80778 260.595 5.32645 258.049 4.32378 254.053C3.33846 250.125 3.95845 246.312 5.70245 242.711C7.18111 239.656 9.63045 237.88 13.1038 237.588C14.9385 237.432 15.9518 236.308 16.1425 234.463C16.7331 228.707 21.3318 224.452 27.1291 224.288C30.9171 224.183 34.3745 225.088 37.4278 227.435C39.2411 228.829 40.2385 228.685 41.7958 227.037C41.9465 226.876 42.0891 226.708 42.2265 226.537C46.0478 221.752 51.0345 220.815 56.6745 222.259C59.9905 223.105 62.9065 224.799 65.5865 226.9C66.3411 227.492 66.9505 228.216 67.4745 229.029C68.7211 230.967 69.2678 231.189 71.4731 230.448C74.2091 229.528 76.9838 228.985 79.8878 229.071C87.0905 229.283 92.5838 234.96 92.4771 243.177Z" fill="#FFFEFE"/>
<path fill-rule="evenodd" clip-rule="evenodd" d="M276.417 249.097C272.676 249.149 269.533 245.962 269.65 242.235C269.657 242.017 269.68 241.798 269.709 241.582C269.845 240.601 270.347 239.893 271.38 239.878C272.402 239.863 272.964 240.51 273.096 241.515C273.164 242.019 273.162 242.543 273.298 243.029C273.72 244.531 275.004 245.505 276.332 245.39C277.454 245.291 278.409 244.286 278.705 242.85C278.793 242.423 278.757 241.965 278.88 241.551C279.154 240.615 279.764 240.047 280.801 240.099C281.836 240.15 282.38 240.783 282.584 241.731C282.808 242.773 282.528 243.77 282.171 244.734C281.211 247.329 278.904 249.063 276.417 249.097Z" fill="#020202"/>
<path fill-rule="evenodd" clip-rule="evenodd" d="M264.638 236.322C264.646 237.906 263.547 238.913 261.771 238.947C259.962 238.982 258.754 237.759 258.789 235.929C258.818 234.411 260.142 233.082 261.585 233.123C263.11 233.166 264.631 234.759 264.638 236.322Z" fill="#030303"/>
<path fill-rule="evenodd" clip-rule="evenodd" d="M294.034 235.455C294.055 236.949 292.788 238.336 291.347 238.395C289.915 238.452 288.787 237.304 288.743 235.748C288.696 234.047 289.942 232.641 291.472 232.671C292.826 232.697 294.01 233.984 294.034 235.455Z" fill="#060606"/>
<path fill-rule="evenodd" clip-rule="evenodd" d="M50.3631 255.705C46.7084 255.703 43.6591 252.631 43.6964 248.969C43.7018 248.537 43.7631 248.09 43.8804 247.674C44.1045 246.87 44.7111 246.446 45.5111 246.478C46.3071 246.509 46.8871 246.973 47.0644 247.785C47.2204 248.494 47.2151 249.249 47.4431 249.929C47.8778 251.231 49.0538 252.039 50.2458 252.002C51.3831 251.965 52.4044 250.986 52.7231 249.581C52.8351 249.086 52.8098 248.555 52.9511 248.07C53.2018 247.219 53.7871 246.707 54.7151 246.699C55.7444 246.691 56.3218 247.277 56.6031 248.213C56.6444 248.351 56.6564 248.501 56.6671 248.646C56.9111 251.647 54.2138 255.811 50.3631 255.705Z" fill="#020202"/>
<path fill-rule="evenodd" clip-rule="evenodd" d="M35.423 245.556C33.8003 245.442 32.7083 244.098 32.831 242.367C32.9363 240.866 34.363 239.598 35.791 239.736C37.335 239.886 38.7576 241.544 38.675 243.096C38.5896 244.715 37.3016 245.688 35.423 245.556Z" fill="#030303"/>
<path fill-rule="evenodd" clip-rule="evenodd" d="M62.7811 242.184C62.8158 240.577 64.0131 239.28 65.4611 239.277C66.8958 239.276 68.1504 240.696 68.0691 242.232C67.9904 243.75 66.6558 245.045 65.2158 245.004C63.7971 244.962 62.7478 243.748 62.7811 242.184Z" fill="#060606"/>
<path fill-rule="evenodd" clip-rule="evenodd" d="M134.114 107.594C135.3 106.943 136.086 106.363 136.969 106.061C138.048 105.69 138.241 104.949 138.164 104.017C137.754 99.062 137.708 94.0967 137.87 89.1327C137.94 87.0194 138.098 84.9034 138.669 82.834C139.133 81.158 140.012 79.7194 141.162 78.51C143.422 76.1287 146.448 75.8487 149.378 77.5847C152.965 79.71 155.71 82.7247 158.148 86.0367C160.873 89.7407 163.464 93.5407 165.916 97.4327C166.358 98.1354 166.934 98.5153 167.809 98.7327C172.805 99.9687 177.525 101.914 181.861 104.702C183.258 105.601 184.658 106.529 185.914 107.813C187.464 106.118 188.264 104.065 189.273 102.157C191.392 98.1527 192.905 93.858 195.108 89.894C196.31 87.7287 197.216 85.3994 198.716 83.3967C200.344 81.2234 202.28 79.5247 205.089 79.1287C205.449 79.078 205.816 79.0194 206.178 79.0314C208.128 79.09 208.07 79.0847 208.449 77.29C210.126 69.346 212.965 61.914 217.796 55.2794C221.88 49.6687 226.668 44.818 232.238 40.6927C236.756 37.35 241.406 34.1967 245.856 30.7567C250.42 27.2274 254.753 23.4794 258.702 19.2594C261.3 16.4847 263.978 13.7927 266.105 10.6354C267.773 8.1567 269.329 5.59935 270.876 3.04068C271.598 1.84602 272.725 1.12869 273.861 0.542027C275.976 -0.549973 277.82 0.0233662 279.392 2.12337C281.042 4.33003 281.917 6.89937 282.445 9.56603C283.281 13.7807 284.398 17.9674 284.237 22.3207C283.968 29.5447 282.974 36.678 281.526 43.7594C280.068 50.89 277.674 57.7234 274.324 64.1394C271.46 69.6247 268.378 75.0314 264.264 79.766C263.034 81.178 261.585 82.4087 260.505 84.1034C263.242 85.1207 265.233 87.03 266.632 89.494C268.668 93.0874 268.116 96.6527 266.211 100.138C263.621 104.871 261.069 109.626 258.466 114.353C256.408 118.09 255.108 122.127 253.725 126.13C252.485 129.717 251.349 133.317 249.21 136.537C247.176 139.601 244.473 141.918 241.526 143.966C239.434 145.422 237.374 146.926 235.274 148.369C234.129 149.157 233.108 150.102 231.858 150.761C230.061 151.71 229 153.234 228.289 155.179C226.664 159.633 224.848 164.017 223.088 168.422C220.54 174.803 217.498 180.958 214.494 187.134C210.657 195.023 206.345 202.647 201.918 210.217C199.957 213.569 198.652 217.242 197.597 220.966C194.853 230.669 191.596 240.198 188.225 249.693C187.2 252.581 186.192 255.47 184.465 258.058C183.34 259.741 181.825 260.741 179.893 261.175C175.996 262.049 172.068 262.205 168.249 260.961C163.148 259.301 161.976 256.127 162.798 251.693C163.852 246.013 165.51 240.475 166.782 234.847C167.588 231.287 168.3 227.705 169 224.122C169.249 222.845 169.078 222.73 167.761 222.893C163.053 223.473 158.325 223.765 153.588 223.957C151.478 224.043 149.038 223.767 147.397 224.845C145.817 225.882 145.529 228.367 144.781 230.253C142.738 235.403 140.84 240.613 138.809 245.769C137.716 248.549 136.409 251.197 134.334 253.459C131.957 256.053 129.181 257.066 125.716 256.659C123.025 256.343 120.558 255.551 118.432 253.891C116.014 252.005 115.002 249.437 115.045 246.399C115.076 244.406 115.457 242.466 115.957 240.565C118.25 231.849 121.75 223.589 125.561 215.453C127.509 211.291 129.466 207.138 130.948 202.701C127.973 202.241 125.056 202.571 122.168 202.298C118.333 201.938 114.492 201.667 110.661 201.274C108.973 201.101 107.389 200.545 106.02 199.454C104.153 197.969 103.378 195.686 104.066 193.393C104.249 192.785 104.524 192.203 104.825 191.437C102.769 191.085 100.854 190.746 98.9345 190.43C95.2158 189.814 91.7078 188.618 88.4758 186.654C87.2705 185.921 86.1651 185.026 85.5371 183.77C84.4558 181.601 84.7331 179.507 86.3558 177.669C87.5211 176.345 88.8438 175.182 90.4051 174.353C91.4065 173.821 91.4851 173.178 91.0798 172.193C88.0891 164.947 87.6051 157.415 89.2038 149.843C89.8091 146.987 88.5865 145.103 87.3278 143.01C84.3985 138.141 81.3838 133.317 79.5025 127.905C78.8051 125.899 78.2212 123.847 78.2532 121.707C78.2998 118.598 79.4545 116.735 82.2705 115.57C85.1012 114.399 87.9038 114.799 90.6131 115.777C94.3905 117.137 98.0158 118.877 101.576 120.738C103.577 121.787 105.557 122.875 107.532 123.975C107.886 124.174 108.165 124.282 108.521 124.029C109.476 123.351 110.434 122.681 111.398 122.018C111.782 121.754 111.76 121.414 111.6 121.059C111.33 120.461 111.026 119.877 110.754 119.281C108.277 113.827 105.829 108.359 103.32 102.922C100.512 96.8394 97.7585 90.7287 94.7731 84.734C92.6558 80.4874 90.8185 76.1434 89.1971 71.6967C88.6945 70.318 88.3318 68.8927 88.1918 67.4367C87.9945 65.4047 88.5625 63.662 90.4558 62.5767C92.2345 61.5594 93.9478 61.874 95.6065 62.878C98.0718 64.3727 100.013 66.4754 101.9 68.5927C108.989 76.5527 115.306 85.1554 122.269 93.226C125.888 97.4207 129.38 101.726 132.921 105.989C133.341 106.494 133.708 107.045 134.114 107.594Z" fill="black"/>
<path fill-rule="evenodd" clip-rule="evenodd" d="M113.273 125.008C114.29 126.693 115.209 128.184 116.095 129.695C116.729 130.772 117.598 131.348 118.874 131.543C122.446 132.093 125.841 131.56 129.154 130.203C134.966 127.821 138.49 123.457 140.269 117.537C140.498 116.772 140.441 116.137 139.975 115.469C139.105 114.223 138.55 112.787 137.471 111.651C136.501 110.632 136.657 110.381 137.881 109.497C138.61 108.971 139.483 108.825 140.255 108.395C141.367 107.776 141.786 107.072 141.713 105.772C141.346 99.4308 141.397 93.0881 141.957 86.7574C142.143 84.6441 142.399 82.5414 144.27 81.0334C144.933 80.4974 145.461 80.3548 146.238 80.5334C147.507 80.8241 148.473 81.6188 149.449 82.3734C152.141 84.4588 154.194 87.1294 156.119 89.8961C158.615 93.4841 161.085 97.0921 163.515 100.725C164.043 101.516 164.65 101.917 165.582 102.144C168.914 102.959 172.134 104.096 175.279 105.504C179.777 107.516 183.462 110.548 186.802 114.076C188.665 116.044 190.026 116.575 192.401 114.645C193.562 113.701 195.075 113.141 196.497 112.576C197.685 112.101 198.55 112.719 198.882 114.051C199.565 116.812 199.175 119.544 198.647 122.268C197.967 125.785 196.662 129.125 195.715 132.565C195.111 134.759 196.362 136.069 198.615 135.648C199.334 135.516 200.058 135.347 200.783 135.329C202.606 135.291 203.287 136.053 203.169 137.88C203.07 139.435 202.506 140.888 201.983 142.312C199.894 147.988 197.757 153.664 194.942 159.027C191.305 165.963 187.231 172.633 181.241 177.86C178.549 180.208 175.775 182.464 172.702 184.333C169.654 186.188 166.786 188.345 163.681 190.091C160.125 192.088 156.453 193.869 152.605 195.313C147.818 197.108 142.853 197.781 137.835 198.249C130.625 198.923 123.429 198.696 116.226 197.892C114.362 197.684 112.467 197.568 110.611 197.28C107.613 196.815 106.999 195.163 108.79 192.68C108.918 192.504 109.11 192.373 109.241 192.2C110.933 189.939 110.185 188.221 107.313 187.785C105.87 187.567 104.421 187.396 102.981 187.172C99.5193 186.635 96.0593 186.1 92.8353 184.608C91.7673 184.112 90.7446 183.543 89.8353 182.807C88.5233 181.74 88.4753 180.817 89.7286 179.733C90.8873 178.732 92.0513 177.735 93.4273 177.003C95.7073 175.792 96.0579 174.644 95.1113 172.153C93.5473 168.039 92.3326 163.833 92.2633 159.392C92.2046 155.587 92.4739 151.799 93.3859 148.087C93.6833 146.877 93.5219 145.812 92.8699 144.748C90.3153 140.577 87.8499 136.356 85.5206 132.053C84.0513 129.344 82.9059 126.499 82.3099 123.491C81.5886 119.848 82.8966 118.555 86.9699 118.905C88.8926 119.072 90.6553 119.853 92.3833 120.616C96.5033 122.437 100.575 124.368 104.657 126.277C105.381 126.616 106.147 126.965 106.727 127.493C108.033 128.687 109.181 128.128 110.246 127.261C111.207 126.483 112.165 125.713 113.273 125.008Z" fill="#FFFEFE"/>
<path fill-rule="evenodd" clip-rule="evenodd" d="M200.177 131.358C201.105 128.226 202.017 125.441 202.566 122.561C203.216 119.164 203.448 115.745 202.426 112.382C201.472 109.237 198.889 107.886 195.733 108.788C193.965 109.292 192.298 110.037 190.746 111.034C190.277 111.336 189.852 111.794 189.297 111.037C188.9 110.494 188.804 110.194 189.198 109.541C190.893 106.732 192.641 103.934 194.049 100.978C195.844 97.2197 197.598 93.441 199.544 89.761C200.456 88.0344 201.25 86.2357 202.642 84.7543C203.968 83.345 205.453 82.7463 207.336 82.8917C207.692 83.757 207.386 84.609 207.308 85.4583C206.725 91.821 207.089 98.1423 208.045 104.448C208.362 106.532 208.626 108.626 208.884 110.72C209.244 113.634 210.246 116.436 211.888 118.865C213.454 121.184 216.021 122.109 218.698 122.36C221.982 122.666 225.088 121.833 227.886 120.072C232.35 117.265 235.862 113.536 238.77 109.125C241.5 104.985 243.893 100.613 246.961 96.709C249.544 93.421 252.646 90.6397 256.217 88.4437C258.318 87.153 260.47 87.7303 262.174 89.8463C264.368 92.5717 264.602 95.0277 262.885 98.1503C260.526 102.438 258.078 106.676 255.757 110.985C253.186 115.753 251.361 120.834 249.661 125.966C248.792 128.596 247.936 131.22 246.466 133.622C244.989 136.04 243.038 137.958 240.826 139.629C236.168 143.15 231.47 146.622 226.749 150.057C225.834 150.724 225.489 151.673 225.137 152.593C221.633 161.721 218.128 170.845 213.841 179.648C210.35 186.814 206.794 193.942 202.892 200.893C201.392 203.564 199.729 206.145 198.264 208.834C196.093 212.826 194.669 217.118 193.421 221.473C190.566 231.444 187.096 241.214 183.684 251C183.158 252.509 182.42 253.953 181.662 255.368C181.136 256.353 180.278 257.194 179.172 257.404C175.929 258.018 172.65 258.332 169.433 257.268C167.016 256.468 166.216 255.542 166.592 252.894C167.148 248.976 168.252 245.193 169.205 241.374C170.798 234.996 172.192 228.574 173.322 222.098C173.733 219.76 172.477 218.381 170.093 218.714C165.105 219.413 160.089 219.713 155.07 220.024C152.812 220.164 150.561 220.417 148.308 220.557C145.442 220.736 143.774 222.086 142.782 224.716C140.41 230.994 137.776 237.169 135.558 243.508C134.761 245.782 133.684 247.937 132.25 249.912C130.653 252.109 128.729 253.276 125.893 252.757C124.51 252.504 123.181 252.19 121.946 251.548C119.866 250.462 118.89 248.749 118.972 246.372C119.09 242.957 120.221 239.788 121.197 236.578C123.2 229.992 126.001 223.722 128.888 217.496C130.976 212.992 132.785 208.381 134.457 203.716C134.809 202.732 135.234 202.386 136.293 202.285C139.484 201.981 142.674 201.669 145.846 201.144C149.925 200.469 153.724 199.042 157.505 197.492C160.884 196.104 164.144 194.45 167.236 192.53C174.05 188.298 180.809 183.968 186.502 178.218C190.221 174.462 193.06 170.064 195.768 165.566C198.906 160.352 201.344 154.796 203.542 149.148C204.785 145.956 206.21 142.801 206.865 139.406C207.274 137.285 207.3 135.224 205.73 133.425C204.758 132.312 203.594 131.681 202.164 131.497C201.592 131.424 201.012 131.414 200.177 131.358Z" fill="#FFFEFE"/>
<path fill-rule="evenodd" clip-rule="evenodd" d="M276.082 12.3949C276.535 13.2469 276.498 14.0282 276.498 14.8242C276.502 21.7615 275.206 28.4909 273.211 35.0975C271.319 41.3655 268.406 47.1468 264.703 52.5415C262.011 56.4642 259.074 60.1735 255.478 63.3189C254.379 64.2802 253.229 65.1855 252.103 66.1162C246.089 71.0909 240.785 76.7362 236.735 83.4189C231.965 91.2975 228.739 99.8042 227.311 108.939C226.937 111.346 226.054 113.588 225.246 115.854C224.773 117.178 223.846 118.002 222.361 118.212C220.982 118.41 219.618 118.62 218.231 118.356C217.047 118.13 216.235 117.566 216.146 116.23C216.061 114.99 215.814 113.758 215.779 112.52C215.479 101.99 216.659 91.6402 220.106 81.6562C221.826 76.6722 224.422 72.0962 227.641 67.8682C232.77 61.1349 238.714 55.2322 245.393 50.0615C248.391 47.7402 251.506 45.5682 254.558 43.3135C257.378 41.2335 259.902 38.8269 262.325 36.3015C264.854 33.6602 267.195 30.8908 269.219 27.8295C272.189 23.3388 274.319 18.4989 275.757 13.3295C275.833 13.0535 275.943 12.7882 276.082 12.3949Z" fill="#FF87C8"/>
<path fill-rule="evenodd" clip-rule="evenodd" d="M211.835 102.897C210.994 99.4187 210.972 95.8387 210.959 92.2787C210.928 84.4187 211.99 76.7107 214.724 69.2934C216.843 63.5481 219.902 58.3774 223.911 53.7214C228.186 48.7587 233.158 44.6801 238.526 40.9627C248.642 33.9547 258.302 26.3814 266.234 16.8494C268.15 14.5481 269.984 12.1787 271.39 9.51604C271.79 8.75736 272.279 8.07606 273.114 7.22136C272.455 11.4547 271.262 15.1854 269.703 18.8081C265.962 27.5067 259.823 34.2601 252.431 39.9681C248.971 42.6401 245.348 45.1014 241.914 47.8041C237.772 51.0627 233.926 54.6654 230.366 58.5561C227.756 61.4094 225.295 64.3814 223.075 67.5627C218.748 73.7654 215.924 80.6001 214.235 87.9347C213.103 92.8507 212.535 97.8547 211.835 102.897Z" fill="#FFE76B"/>
<path fill-rule="evenodd" clip-rule="evenodd" d="M280.402 22.0783C279.896 31.4863 278.686 40.2356 276.23 48.7703C274.136 56.041 270.95 62.821 266.93 69.245C264.438 73.2303 261.874 77.133 258.43 80.345C255.707 82.8836 252.792 85.2196 249.994 87.681C248.903 88.641 247.82 89.6263 246.862 90.713C242.93 95.1636 239.85 100.218 236.719 105.232C235.286 107.525 233.69 109.698 231.95 111.766C231.54 112.252 231.095 112.722 230.252 112.949C231.703 106.292 233.104 99.7703 235.862 93.5996C238.382 87.957 241.458 82.689 245.491 78.0063C248.887 74.065 252.664 70.5103 256.763 67.3103C260.49 64.3983 263.408 60.7636 266.256 57.0356C269.154 53.2383 271.546 49.153 273.591 44.8516C276.69 38.3356 278.514 31.4396 279.675 24.3463C279.732 23.9916 279.74 23.6223 279.831 23.2756C279.899 23.0156 280.062 22.7796 280.402 22.0783Z" fill="#47FFF4"/>
<path fill-rule="evenodd" clip-rule="evenodd" d="M111.357 111.046C116.703 110.275 120.868 107.832 124.081 103.74C124.957 102.626 125.117 102.619 126.007 103.615C127.216 104.97 128.377 106.368 129.528 107.775C131.655 110.37 133.969 112.802 135.983 115.499C136.715 116.476 136.705 117.24 136.287 118.271C134.748 122.047 131.909 124.556 128.421 126.412C126.271 127.558 123.941 128.035 121.491 128.191C119.661 128.308 118.58 127.599 117.883 126.046C116.541 123.056 115.164 120.083 113.891 117.067C113.073 115.13 111.989 113.304 111.357 111.046Z" fill="#47FFF4"/>
<path fill-rule="evenodd" clip-rule="evenodd" d="M103.327 93.249C105.694 92.3877 108.049 91.4424 110.014 89.761C110.401 89.429 110.783 89.1264 111.113 88.717C112.227 87.3277 112.281 87.329 113.51 88.7463C114.795 90.2277 116.027 91.757 117.283 93.265C118.777 95.0597 120.259 96.8663 121.773 98.6464C122.237 99.193 122.527 99.665 122.025 100.366C119.227 104.261 115.561 106.753 110.766 107.504C110.102 107.608 109.641 107.592 109.335 106.912C107.362 102.528 105.374 98.1517 103.397 93.769C103.339 93.641 103.355 93.481 103.327 93.249Z" fill="#FF87C8"/>
<path fill-rule="evenodd" clip-rule="evenodd" d="M93.1385 65.8635C93.9931 66.5022 94.9598 67.0595 95.7251 67.8222C99.4425 71.5262 102.933 75.4355 106.066 79.6555C106.934 80.8262 107.9 81.9235 108.806 83.0675C110.037 84.6169 110.073 84.6649 108.645 86.1182C106.932 87.8649 104.794 88.9289 102.488 89.6915C101.713 89.9489 101.47 89.5222 101.185 88.9422C100.06 86.6569 98.8425 84.4142 97.7611 82.1102C95.8385 78.0169 93.9318 73.9142 92.6371 69.5635C92.3891 68.7315 92.1598 67.8822 92.0558 67.0222C91.9785 66.3862 92.3291 65.9209 93.1385 65.8635Z" fill="#FFE76B"/>
<path fill-rule="evenodd" clip-rule="evenodd" d="M150.694 158.571C150.371 159.096 150.435 159.703 150.299 160.263C149.607 163.083 147.677 164.177 144.882 163.5C143.17 163.085 141.747 161.973 140.687 160.479C140.23 159.835 140.053 159.192 140.225 158.423C140.507 157.168 141.705 156.683 142.701 157.509C143.373 158.064 143.913 158.776 144.541 159.387C145.037 159.869 145.647 160.204 146.318 159.824C146.909 159.491 146.939 158.827 146.79 158.256C146.589 157.48 146.562 156.68 146.269 155.907C145.877 154.873 146.118 153.916 147.138 153.235C148.362 152.415 148.874 152.353 150.103 153.275C150.862 153.844 151.549 154.507 152.423 154.915C152.875 155.125 153.335 155.564 153.831 155.259C154.434 154.884 154.19 154.221 154.162 153.645C154.126 152.967 153.913 152.389 153.526 151.815C152.926 150.925 152.983 149.993 153.81 149.241C154.489 148.624 155.505 148.7 156.31 149.727C157.782 151.605 158.217 153.828 157.527 156.127C157.038 157.765 155.87 158.783 154.102 159.104C152.879 159.325 151.883 158.425 150.694 158.571Z" fill="#010101"/>
<path fill-rule="evenodd" clip-rule="evenodd" d="M133.004 160.731C132.676 162.999 130.873 164.757 128.752 164.571C126.486 164.372 124.433 161.841 124.648 159.448C124.822 157.492 127.118 155.608 129.152 155.755C131.014 155.887 133.168 158.668 133.004 160.731Z" fill="#020202"/>
<path fill-rule="evenodd" clip-rule="evenodd" d="M161.978 135.313C164.114 135.487 166.091 138.013 165.887 140.306C165.7 142.402 163.779 143.901 161.582 143.742C159.202 143.569 157.176 141.018 157.424 138.729C157.66 136.566 159.608 135.118 161.978 135.313Z" fill="#010101"/>
</svg>
