<svg width="216" height="285" viewBox="0 0 216 285" fill="none" xmlns="http://www.w3.org/2000/svg">
<path fill-rule="evenodd" clip-rule="evenodd" d="M50.5215 131.09C49.0015 129.784 47.6028 128.611 46.2348 127.4C45.4082 126.667 44.7135 125.82 44.2295 124.806C43.0548 122.335 43.6255 119.587 45.7188 117.839C46.1602 117.471 46.6482 117.16 47.2322 116.74C45.4095 115.068 43.6389 113.444 41.8668 111.822C39.4575 109.616 37.4895 107.068 36.0802 104.126C33.6175 98.9803 35.4935 95.5443 41.1588 94.7203C41.3762 94.6883 41.6029 94.7017 41.8148 94.6563C43.0188 94.395 44.5762 95.0497 45.3828 94.1736C46.0815 93.4163 46.0602 91.9856 46.3335 90.8483C48.0455 83.7323 51.8268 77.7723 56.7309 72.483C57.7575 71.3763 58.2455 70.2936 58.2442 68.8016C58.2415 63.0763 58.3642 57.3536 59.2175 51.675C59.6228 48.9723 60.4001 46.379 61.7295 43.9776C63.5908 40.619 66.2215 39.6443 69.8868 40.8163C72.2402 41.5683 73.9322 43.143 75.4242 44.9923C77.9642 48.143 80.0428 51.6056 82.1268 55.0617C83.1868 56.819 84.2242 58.5936 85.1815 60.4096C85.6428 61.2803 86.1188 61.787 87.1988 61.6043C88.1935 61.4363 89.4761 61.799 90.1628 61.2923C91.0028 60.6723 90.6562 59.2523 90.8028 58.1883C92.1575 48.379 93.4868 38.567 94.7508 28.747C95.4362 23.4377 95.7695 18.0857 96.7042 12.8057C97.1375 10.3497 97.5495 7.88965 98.2962 5.50432C98.5815 4.59765 98.8868 3.68166 99.3268 2.84433C100.236 1.1163 101.595 -0.0223732 103.675 0.000333497C105.763 0.0242935 107.077 1.23095 107.971 2.94699C108.717 4.38163 109.119 5.95367 109.487 7.52963C110.772 13.043 111.409 18.655 112.012 24.271C113.068 34.1176 114.487 43.919 115.893 53.7203C116.207 55.8963 116.404 58.091 116.645 60.279C116.733 61.0883 116.99 61.3857 117.967 61.5416C120.5 61.943 121.912 61.1137 123.032 58.7616C124.667 55.3257 126.818 52.1443 128.921 48.9616C130.216 47.0016 131.586 45.0963 133.23 43.4017C134.49 42.107 135.973 41.2177 137.702 40.7096C141.075 39.7163 143.598 40.6896 145.36 43.7283C146.588 45.8403 147.327 48.1389 147.811 50.527C148.761 55.2283 148.7 60.0136 149.012 64.7683C149.075 65.719 149.115 66.683 149.034 67.6283C148.84 69.8696 149.564 71.5283 151.167 73.2617C156.221 78.731 159.816 85.0736 161.303 92.4803C161.697 94.4443 161.736 94.4336 163.812 94.5363C165.134 94.6003 166.447 94.7297 167.733 95.0563C171.404 95.987 173.037 98.8523 171.828 102.44C170.831 105.406 169.108 107.975 166.944 110.206C165.211 111.995 163.319 113.631 161.507 115.346C161.041 115.787 160.404 116.072 160.163 116.683C160.236 117.074 160.554 117.143 160.775 117.304C164.182 119.794 164.595 123.438 161.804 126.587C160.433 128.134 158.772 129.351 157.157 130.623C156.888 130.835 156.657 131.095 156.072 131.654C157.564 131.11 158.648 130.711 159.732 130.32C165.184 128.355 170.75 126.744 176.292 125.068C177.836 124.602 179.363 124.078 180.916 123.646C183.591 122.903 185.894 121.623 187.815 119.558C189.278 117.986 191.07 116.828 193.304 116.55C196.691 116.128 199.356 118.01 199.614 121.41C199.738 123.027 200.367 123.614 201.743 124.135C204.754 125.275 207.04 128.586 205.66 131.892C205.386 132.552 205.484 133.179 205.827 133.792C206.004 134.111 206.138 134.456 206.311 134.779C208.124 138.116 208.195 140.884 203.918 144.339C203.116 144.986 202.175 145.42 201.207 145.78C191.101 149.542 181.352 154.162 171.374 158.228C162.679 161.772 153.868 165 145.037 168.178C142.775 168.992 143.023 168.7 143.08 170.919C143.207 175.83 142.933 180.728 142.696 185.555C143.049 186.012 143.423 185.848 143.758 185.762C150.23 184.092 155.943 185.828 161.112 189.736C166.877 194.096 170.775 199.936 173.816 206.371C176.636 212.346 178.549 218.682 180.829 224.872C182.175 228.523 183.665 232.106 185.548 235.518C186.792 237.778 188.283 239.854 189.963 241.811C194.716 247.343 200.822 249.271 207.909 248.67C209.297 248.551 210.696 248.378 212.08 248.436C214.776 248.552 215.728 249.892 215.071 252.524C214.624 254.316 213.789 255.95 212.812 257.514C208.399 264.58 202.139 269.308 194.357 272.111C186.874 274.806 179.116 275.996 171.214 275.562C159.186 274.903 149.058 270.262 141.749 260.352C140.625 258.83 139.72 257.146 138.662 255.452C138.14 255.97 138.243 256.627 138.215 257.222C138.032 261.106 137.916 264.996 137.36 268.851C137.236 269.703 137.503 270.219 138.24 270.643C139.802 271.543 140.995 272.804 141.796 274.442C143.785 278.508 141.811 282.992 137.395 283.83C131.652 284.916 125.852 284.916 120.134 283.56C116.66 282.736 115.724 281.438 115.447 277.87C115.243 275.226 115.436 272.588 115.481 269.948C115.68 258.267 114.969 246.627 113.856 235.007C113.69 233.263 113.668 233.236 112.061 233.414C106.497 234.026 100.939 234.032 95.3748 233.41C93.8042 233.234 93.7668 233.262 93.6188 234.803C92.4162 247.448 91.6308 260.111 92.0548 272.824C92.1162 274.655 92.0655 276.495 91.9615 278.326C91.7975 281.203 90.7108 282.546 87.9402 283.407C86.7508 283.776 85.5375 284.038 84.2855 284.166C79.8895 284.615 75.5028 284.69 71.1148 284.058C68.4842 283.678 66.3402 282.663 65.3588 279.97C64.3482 277.195 65.0908 274.784 66.8588 272.584C67.1322 272.243 67.4228 271.838 67.7988 271.672C70.1268 270.644 70.1108 268.866 69.8815 266.647C68.9775 257.956 68.8668 249.216 68.5895 240.488C68.5188 238.291 68.6415 236.086 68.7628 233.89C69.0095 229.402 68.8508 224.951 67.9908 220.524C66.7842 214.32 66.2722 208.023 65.8028 201.738C65.0402 191.498 64.2482 181.252 64.3828 170.968C64.4135 168.602 64.6068 168.966 62.4588 168.198C52.0335 164.468 41.6202 160.694 31.4508 156.315C23.0322 152.692 14.6308 149.034 6.08282 145.724C4.32948 145.044 2.87351 143.978 1.65484 142.559C-0.094521 140.523 -0.502518 138.287 0.649509 135.82C0.958815 135.156 1.27084 134.491 1.60548 133.84C1.92148 133.227 2.07883 132.616 1.80283 131.944C0.416162 128.579 2.68951 125.407 5.64951 124.12C6.05082 123.947 6.45883 123.763 6.88283 123.662C7.49216 123.514 7.70151 123.148 7.71482 122.556C7.72951 121.972 7.76149 121.376 7.88551 120.81C8.52149 117.951 10.7442 116.306 13.6588 116.498C15.0042 116.587 16.2508 117.004 17.3788 117.732C17.9921 118.13 18.6655 118.518 19.1162 119.07C21.5841 122.083 25.0388 123.26 28.5761 124.32C35.6668 126.443 42.8082 128.419 49.7282 131.08C49.9082 131.15 50.1362 131.09 50.5215 131.09Z" fill="black"/>
<path fill-rule="evenodd" clip-rule="evenodd" d="M119.253 264.422C119.236 253.924 118.757 243.448 117.491 233.02C117.087 229.702 116.256 228.955 112.847 229.408C109.187 229.898 105.529 229.854 101.864 229.871C99.664 229.88 97.46 229.88 95.284 229.448C94.856 229.363 94.4093 229.356 93.9693 229.344C91.044 229.27 90.3813 229.83 89.9813 232.78C89.3893 237.143 89.0947 241.534 88.7787 245.924C88.0627 255.816 87.9827 265.72 88.2094 275.628C88.22 276.068 88.2094 276.51 88.1974 276.95C88.136 279.272 87.9773 279.582 85.6307 279.994C80.8267 280.836 75.9907 280.888 71.1747 280.084C68.9747 279.718 68.2293 277.984 69.2453 275.983C69.6933 275.098 70.3467 274.384 71.2173 273.97C73.7293 272.774 74.1894 270.911 73.948 268.202C72.82 255.554 72.08 242.88 72.7747 230.171C72.948 226.995 72.4747 223.872 71.952 220.76C70.168 210.107 69.4174 199.356 68.844 188.584C68.4894 181.918 67.828 175.27 67.8827 168.579C67.9014 166.152 67.676 165.95 65.3373 165.111C54.4333 161.2 43.5227 157.288 32.8827 152.708C24.5307 149.115 16.2013 145.482 7.72268 142.198C6.96801 141.904 6.24401 141.55 5.61334 141.034C3.76401 139.523 3.52937 138.659 4.64004 136.507C5.64937 134.555 6.36402 132.628 5.43068 130.427C5.05868 129.548 5.57201 128.87 6.2147 128.315C6.9587 127.675 7.86935 127.426 8.80271 127.176C10.788 126.644 11.4467 125.792 11.5987 123.755C11.6254 123.39 11.6014 123.022 11.6214 122.655C11.74 120.448 12.7907 119.802 14.8027 120.754C15.8747 121.259 16.7707 122.044 17.564 122.911C19.4574 124.976 21.8254 126.187 24.452 127.055C31.1347 129.264 37.9694 130.987 44.6014 133.355C49.9147 135.251 55.2107 137.206 60.5547 139.022C64.2694 140.284 67.5614 142.367 70.9827 144.183C79.964 148.947 89.6267 150.699 99.6387 150.856C105.06 150.94 110.485 150.962 115.905 150.302C123.052 149.431 129.845 147.558 136.204 144.16C136.527 143.987 136.873 143.854 137.185 143.664C143.256 139.992 150.008 137.966 156.603 135.536C165.211 132.367 174.035 129.894 182.769 127.132C185.553 126.252 188.033 124.952 190.033 122.778C190.877 121.862 191.829 121.032 193.039 120.604C194.836 119.967 195.688 120.523 195.828 122.412C195.865 122.923 195.835 123.44 195.865 123.952C195.963 125.608 196.787 126.694 198.407 127.139C198.9 127.274 199.415 127.358 199.889 127.543C201.877 128.319 202.368 129.208 201.788 131.256C201.449 132.454 201.513 133.572 201.98 134.69C202.207 135.23 202.473 135.752 202.728 136.28C203.945 138.788 203.656 139.872 201.313 141.396C200.827 141.715 200.291 141.982 199.745 142.183C189.629 145.922 179.889 150.558 169.909 154.627C160.811 158.339 151.567 161.664 142.34 165.036C139.684 166.007 139.519 166.142 139.539 169.002C139.597 177.6 138.64 186.143 138.212 194.716C137.729 204.323 136.704 213.866 135.093 223.35C134.625 226.104 134.583 228.887 134.771 231.688C135.096 236.599 135.011 241.52 134.821 246.435C134.632 251.275 134.403 256.112 134.125 260.947C133.965 263.727 133.767 266.512 133.407 269.274C133.164 271.124 133.768 272.418 135.283 273.372C136.089 273.882 136.948 274.316 137.583 275.054C138.451 276.059 138.864 277.195 138.467 278.512C138.081 279.79 136.995 280.012 135.867 280.171C131.332 280.803 126.792 280.816 122.276 280.076C119.392 279.606 119.273 279.394 119.259 276.532C119.236 272.496 119.253 268.458 119.253 264.422Z" fill="#FFFEFE"/>
<path fill-rule="evenodd" clip-rule="evenodd" d="M89.9603 65.1247C89.6403 67.0554 89.7216 68.8714 89.6763 70.6807C89.647 71.8434 90.0883 72.6274 90.9069 73.3407C92.8683 75.0447 95.0256 76.3727 97.5216 77.1647C104.274 79.3074 110.374 78.0887 115.904 73.7234C117.015 72.8474 117.587 71.8661 117.524 70.3567C117.452 68.686 117.458 67.002 117.338 65.1607C118.71 64.9407 120.002 65.0594 121.262 65.2754C122.714 65.5274 123.551 65.0167 124.26 63.7247C127.226 58.3194 130.559 53.1394 134.234 48.1847C134.935 47.2407 135.7 46.3501 136.599 45.5874C137.282 45.0061 138.064 44.6114 138.932 44.4087C140.519 44.0381 141.198 44.3154 142.032 45.7421C142.928 47.2754 143.48 48.9447 143.856 50.6727C144.863 55.2887 144.87 59.9941 145.094 64.6794C145.183 66.5834 145.203 68.4941 145.163 70.4007C145.132 71.8941 145.639 73.054 146.696 74.122C152.294 79.7701 156.283 86.3154 157.682 94.2647C157.744 94.6247 157.836 94.982 157.926 95.3367C158.584 97.9914 159.367 98.5954 162.086 98.4514C163.56 98.374 165.028 98.462 166.464 98.7541C168.276 99.1234 168.675 99.8554 168.006 101.581C167.095 103.934 165.67 105.982 163.911 107.781C161.808 109.933 159.588 111.963 157.228 113.837C156.542 114.382 155.848 114.945 155.263 115.594C153.926 117.074 154.292 118.643 156.116 119.463C156.918 119.822 157.776 120.074 158.526 120.517C159.887 121.322 160.11 122.393 159.155 123.639C158.582 124.387 157.879 125.065 157.142 125.657C149.579 131.734 141.688 137.291 132.88 141.49C126.978 144.307 120.815 146.03 114.328 146.555C105.979 147.233 97.6163 147.31 89.3029 146.131C84.427 145.439 79.7523 143.991 75.2483 141.913C66.0483 137.669 57.8496 131.911 50.0069 125.59C49.2709 124.997 48.5736 124.311 48.0149 123.553C47.1523 122.378 47.3683 121.333 48.6016 120.578C49.3429 120.126 50.2003 119.863 51.003 119.513C52.9496 118.665 53.335 117.046 51.887 115.513C51.1883 114.769 50.347 114.158 49.5696 113.487C46.3496 110.71 43.0016 108.061 40.6789 104.403C40.0083 103.347 39.3683 102.271 39.0469 101.057C38.7229 99.8327 39.0269 99.278 40.2576 98.9087C41.8896 98.4207 43.5789 98.3874 45.2709 98.4647C47.7737 98.5794 48.583 98.0127 49.2069 95.634C49.5789 94.2167 49.8309 92.7687 50.203 91.3514C51.8803 84.9447 55.3029 79.5207 59.8789 74.8407C61.3856 73.3007 62.0363 71.7501 62.0656 69.6101C62.1536 63.5994 62.1523 57.5727 63.1789 51.618C63.5323 49.582 64.135 47.622 65.1549 45.818C66.0109 44.2981 66.7656 44.0074 68.4336 44.4394C69.923 44.8247 71.0296 45.7767 71.979 46.9234C74.5123 49.9794 76.6616 53.3114 78.7763 56.658C80.2643 59.0127 81.6949 61.4074 83.0363 63.8474C83.7056 65.0647 84.5403 65.502 85.8923 65.2821C87.1763 65.0727 88.4857 64.9661 89.9603 65.1247Z" fill="#FFFEFE"/>
<path fill-rule="evenodd" clip-rule="evenodd" d="M207.383 254.665C204.738 257.216 201.555 258.829 198.202 260.106C193.723 261.814 189.083 263.001 184.289 263.113C177.854 263.265 171.577 262.322 165.666 259.54C160.133 256.934 156.07 252.882 153.479 247.358C152.546 245.366 151.682 243.345 150.802 241.329C149.481 238.3 148.015 235.348 146.102 232.638C144.354 230.16 142.382 227.892 139.687 226.41C138.901 225.977 138.695 225.529 138.845 224.67C139.254 222.286 139.501 219.874 139.939 217.497C140.591 213.954 140.849 210.372 141.17 206.796C141.375 204.497 141.381 204.47 143.686 205.108C146.867 205.986 149.569 207.705 151.961 209.938C154.841 212.625 157.034 215.809 158.737 219.346C160.805 223.645 162.411 228.133 164.127 232.577C166.347 238.316 169.338 243.558 173.91 247.801C181.881 255.197 191.255 257.854 201.925 256.19C203.795 255.9 205.565 255.196 207.383 254.665Z" fill="#FF87C8"/>
<path fill-rule="evenodd" clip-rule="evenodd" d="M201.161 252.101C197.299 253.061 193.446 253 189.631 252.071C180.91 249.945 174.687 244.587 170.365 236.873C168.641 233.796 167.47 230.468 166.23 227.177C164.911 223.679 163.521 220.208 161.837 216.864C160.21 213.632 158.177 210.685 155.634 208.103C152.11 204.521 148.043 201.876 143.011 200.993C142.085 200.831 141.839 200.519 141.921 199.573C142.161 196.799 142.105 194.009 142.371 191.229C142.475 190.137 142.917 189.703 143.851 189.419C148.719 187.941 153.152 189.151 157.266 191.749C159.878 193.4 162.117 195.539 164.058 197.963C167.999 202.881 170.806 208.407 172.905 214.328C174.619 219.163 176.369 223.985 178.171 228.788C179.589 232.569 181.315 236.211 183.477 239.632C184.654 241.497 186.002 243.231 187.502 244.852C191.206 248.853 195.525 251.683 201.161 252.101Z" fill="#FFE76B"/>
<path fill-rule="evenodd" clip-rule="evenodd" d="M204.072 261.73C201.674 264.303 198.66 266.134 195.4 267.474C185.532 271.528 175.298 272.953 164.796 270.772C155.618 268.868 148.287 264.001 143.454 255.821C141.894 253.179 140.684 250.326 139.396 247.534C138.906 246.47 138.695 245.269 138.76 244.094C138.98 240.129 138.875 236.171 138.651 232.213C138.626 231.785 138.648 231.354 138.648 230.969C139.392 230.576 139.668 231.151 140.007 231.467C142.626 233.913 144.431 236.933 145.959 240.122C147.006 242.303 147.998 244.515 148.906 246.758C153.278 257.553 161.488 263.578 172.656 265.935C183.306 268.185 193.51 266.841 203.284 262.087C203.544 261.961 203.81 261.849 204.072 261.73Z" fill="#47FFF4"/>
<path fill-rule="evenodd" clip-rule="evenodd" d="M95.5307 52.1592C100.907 54.5099 106.181 54.5939 111.451 52.2473C112.204 53.3539 112.079 54.5726 112.236 55.7019C112.849 60.0539 113.633 64.3806 114.048 68.7633C114.185 70.2113 113.731 71.0499 112.545 71.8326C107.439 75.2019 99.704 75.1833 94.6147 71.7873C93.5053 71.0486 93.0494 70.2366 93.1547 68.9046C93.4574 65.1006 94.232 61.3619 94.6893 57.5793C94.8973 55.8486 95.2214 54.1312 95.5307 52.1592Z" fill="#47FFF4"/>
<path fill-rule="evenodd" clip-rule="evenodd" d="M109.058 32.7042C109.458 35.6561 109.829 38.3975 110.202 41.1388C110.469 43.0962 110.673 45.0655 111.038 47.0055C111.246 48.0988 110.875 48.6535 109.914 49.0228C105.774 50.6148 101.637 50.5975 97.4753 49.1028C96.4167 48.7215 96.034 48.0828 96.2206 46.9308C96.65 44.2588 96.9793 41.5708 97.342 38.8868C97.5673 37.2201 97.802 35.5535 97.9766 33.8801C98.0633 33.0495 98.3393 32.6935 99.23 32.9508C102.414 33.8668 105.59 33.6935 109.058 32.7042Z" fill="#FF87C8"/>
<path fill-rule="evenodd" clip-rule="evenodd" d="M103.442 29.8865C102.266 29.9572 101.045 29.8131 99.8315 29.4425C98.9702 29.1785 98.6955 28.7278 98.7875 27.8331C99.4808 20.9731 100.094 14.1038 101.796 7.39313C102.047 6.39711 102.298 5.39046 102.862 4.51846C103.353 3.76249 103.903 3.7558 104.382 4.5198C104.931 5.39711 105.195 6.40379 105.446 7.39712C106.507 11.6025 107.143 15.8811 107.654 20.1811C107.949 22.6571 108.15 25.1438 108.481 27.6158C108.629 28.7078 108.283 29.2091 107.223 29.5038C105.995 29.8451 104.773 29.9172 103.442 29.8865Z" fill="#FFE76B"/>
<path fill-rule="evenodd" clip-rule="evenodd" d="M103.602 113.181C103.129 113.717 102.738 114.225 102.281 114.665C100.576 116.309 98.3102 116.419 96.5236 114.883C94.7982 113.403 94.1742 111.395 94.0902 109.195C94.0609 108.414 94.4115 107.765 95.0916 107.35C96.1849 106.683 97.4036 107.353 97.5569 108.813C97.6662 109.859 97.8449 110.842 98.4569 111.707C98.8942 112.323 99.3822 112.37 99.8822 111.773C100.561 110.965 100.852 109.986 101.166 109.002C101.704 107.322 102.197 106.937 103.584 106.927C104.981 106.917 105.462 107.309 106.033 108.941C106.325 109.77 106.529 110.633 107.041 111.37C107.834 112.513 108.402 112.459 109.088 111.203C109.452 110.539 109.518 109.818 109.622 109.089C109.82 107.682 110.494 107.003 111.48 107.11C112.453 107.217 113.101 108.069 113.101 109.377C113.098 111.279 112.492 113.001 111.21 114.413C109.361 116.453 106.781 116.471 104.829 114.521C104.418 114.111 104.046 113.667 103.602 113.181Z" fill="#010101"/>
<path fill-rule="evenodd" clip-rule="evenodd" d="M88.2599 103.144C88.1306 105.672 86.2639 107.5 83.8826 107.43C81.5946 107.364 80.1212 105.528 80.2119 102.854C80.2972 100.322 82.2412 98.4997 84.6425 98.6997C86.8905 98.8877 88.3852 100.722 88.2599 103.144Z" fill="#020202"/>
<path fill-rule="evenodd" clip-rule="evenodd" d="M127.05 102.99C127.082 105.611 125.513 107.431 123.219 107.43C120.819 107.427 119.07 105.582 119.022 103.006C118.975 100.518 120.475 98.7752 122.734 98.6912C125.149 98.6005 127.019 100.462 127.05 102.99Z" fill="#020202"/>
</svg>
